M48
;DRILL file {Pcbnew (2013-07-07 BZR 4022)-stable} date 09-Jan-14 2:58:26 PM
;FORMAT={-:-/ absolute / metric / decimal}
FMAT,2
METRIC,TZ
T1C0.600
T2C0.813
T3C0.914
T4C1.000
T5C1.016
T6C2.692
T7C4.000
%
G90
G05
M71
T1
X146.812Y-118.999
X146.812Y-134.239
X147.066Y-154.686
X147.066Y-169.926
X151.32Y-127.688
X153.861Y-127.688
X156.464Y-154.623
X156.464Y-169.862
X206.248Y-124.714
X221.488Y-124.714
X258.435Y-156.337
X258.435Y-158.877
X278.892Y-137.287
X278.892Y-152.527
X281.813Y-139.7
X281.813Y-154.94
X284.607Y-142.367
X284.607Y-157.607
T2
X153.924Y-117.856
X156.464Y-117.856
X157.734Y-122.936
X157.734Y-133.096
X161.671Y-133.096
X161.671Y-135.636
X161.671Y-138.176
X161.671Y-140.716
X161.671Y-143.256
X161.671Y-145.796
X161.671Y-148.336
X161.671Y-150.876
X169.291Y-133.096
X169.291Y-135.636
X169.291Y-138.176
X169.291Y-140.716
X169.291Y-143.256
X169.291Y-145.796
X169.291Y-148.336
X169.291Y-150.876
X172.466Y-112.014
X172.466Y-117.094
X172.466Y-163.576
X175.514Y-140.716
X175.514Y-150.876
X177.546Y-163.576
X177.927Y-138.43
X177.927Y-148.59
X180.213Y-135.89
X180.213Y-146.05
X182.626Y-109.982
X182.626Y-120.142
X185.674Y-112.014
X185.674Y-122.174
X209.423Y-168.275
X209.423Y-173.355
X221.488Y-112.014
X221.488Y-117.094
X221.488Y-163.703
X226.568Y-163.703
X231.394Y-109.982
X231.394Y-120.142
X234.188Y-112.014
X234.188Y-122.174
X260.604Y-114.554
X260.604Y-124.714
X263.144Y-114.554
X263.144Y-124.714
X264.414Y-132.207
X264.414Y-134.747
X264.414Y-137.287
X264.414Y-139.827
X264.414Y-142.367
X264.414Y-144.907
X264.414Y-147.447
X264.414Y-149.987
X264.414Y-152.527
X265.43Y-163.703
X270.51Y-163.703
X272.034Y-132.207
X272.034Y-134.747
X272.034Y-137.287
X272.034Y-139.827
X272.034Y-142.367
X272.034Y-144.907
X272.034Y-147.447
X272.034Y-149.987
X272.034Y-152.527
X272.796Y-111.76
X272.796Y-121.92
X275.59Y-111.76
X275.59Y-121.92
T3
X167.37Y-107.618
X167.37Y-167.718
X169.91Y-107.618
X169.91Y-167.718
X172.45Y-107.618
X172.45Y-167.718
X174.99Y-107.618
X174.99Y-167.718
X177.51Y-107.618
X177.53Y-167.718
X216.37Y-107.618
X216.37Y-167.718
X218.91Y-107.618
X218.91Y-167.718
X221.45Y-107.618
X221.45Y-167.718
X223.99Y-107.618
X223.99Y-167.718
X226.51Y-107.618
X226.53Y-167.718
X265.42Y-107.618
X265.42Y-167.718
X267.96Y-107.618
X267.96Y-167.718
X270.5Y-107.618
X270.5Y-167.718
X273.04Y-107.618
X273.04Y-167.718
X275.56Y-107.618
X275.58Y-167.718
T4
X215.138Y-138.43
X215.138Y-140.97
X217.678Y-138.43
X217.678Y-140.97
X220.218Y-138.43
X220.218Y-140.97
X222.758Y-138.43
X222.758Y-140.97
X225.298Y-138.43
X225.298Y-140.97
X227.838Y-138.43
X227.838Y-140.97
X230.378Y-138.43
X230.378Y-140.97
X232.918Y-138.43
X232.918Y-140.97
X235.458Y-138.43
X235.458Y-140.97
X237.998Y-138.43
X237.998Y-140.97
T5
X151.638Y-164.909
X151.638Y-167.45
X151.638Y-169.989
X161.226Y-164.719
X161.226Y-167.259
X161.226Y-169.799
X184.567Y-130.865
X184.567Y-133.405
X184.567Y-135.945
X184.567Y-138.485
X184.567Y-141.025
X184.567Y-143.565
X184.567Y-146.105
X184.567Y-148.645
X187.107Y-130.865
X187.107Y-133.405
X187.107Y-135.945
X187.107Y-138.485
X187.107Y-141.025
X187.107Y-143.565
X187.107Y-146.105
X187.107Y-148.645
X292.163Y-164.655
X292.163Y-167.195
X292.163Y-169.736
T6
X206.248Y-139.446
X246.888Y-139.446
T7
X142.875Y-172.91
X143.065Y-102.362
X299.466Y-172.656
X299.593Y-102.362
T0
M30
