G04 (created by PCBNEW (2013-07-07 BZR 4022)-stable) date 09-Jan-14 2:58:25 PM*
%MOIN*%
G04 Gerber Fmt 3.4, Leading zero omitted, Abs format*
%FSLAX34Y34*%
G01*
G70*
G90*
G04 APERTURE LIST*
%ADD10C,0.00590551*%
%ADD11C,0.00688976*%
G04 APERTURE END LIST*
G54D10*
G54D11*
X74438Y-51343D02*
X74438Y-50989D01*
X74522Y-50989D01*
X74573Y-51005D01*
X74607Y-51039D01*
X74624Y-51073D01*
X74640Y-51140D01*
X74640Y-51191D01*
X74624Y-51259D01*
X74607Y-51292D01*
X74573Y-51326D01*
X74522Y-51343D01*
X74438Y-51343D01*
X74759Y-50989D02*
X74995Y-50989D01*
X74843Y-51343D01*
X74438Y-52473D02*
X74438Y-52119D01*
X74522Y-52119D01*
X74573Y-52135D01*
X74607Y-52169D01*
X74624Y-52203D01*
X74640Y-52270D01*
X74640Y-52321D01*
X74624Y-52388D01*
X74607Y-52422D01*
X74573Y-52456D01*
X74522Y-52473D01*
X74438Y-52473D01*
X74944Y-52119D02*
X74877Y-52119D01*
X74843Y-52135D01*
X74826Y-52152D01*
X74792Y-52203D01*
X74775Y-52270D01*
X74775Y-52405D01*
X74792Y-52439D01*
X74809Y-52456D01*
X74843Y-52473D01*
X74910Y-52473D01*
X74944Y-52456D01*
X74961Y-52439D01*
X74978Y-52405D01*
X74978Y-52321D01*
X74961Y-52287D01*
X74944Y-52270D01*
X74910Y-52253D01*
X74843Y-52253D01*
X74809Y-52270D01*
X74792Y-52287D01*
X74775Y-52321D01*
X74438Y-53603D02*
X74438Y-53248D01*
X74522Y-53248D01*
X74573Y-53265D01*
X74607Y-53299D01*
X74624Y-53333D01*
X74640Y-53400D01*
X74640Y-53451D01*
X74624Y-53518D01*
X74607Y-53552D01*
X74573Y-53586D01*
X74522Y-53603D01*
X74438Y-53603D01*
X74961Y-53248D02*
X74792Y-53248D01*
X74775Y-53417D01*
X74792Y-53400D01*
X74826Y-53383D01*
X74910Y-53383D01*
X74944Y-53400D01*
X74961Y-53417D01*
X74978Y-53451D01*
X74978Y-53535D01*
X74961Y-53569D01*
X74944Y-53586D01*
X74910Y-53603D01*
X74826Y-53603D01*
X74792Y-53586D01*
X74775Y-53569D01*
X74438Y-54733D02*
X74438Y-54378D01*
X74522Y-54378D01*
X74573Y-54395D01*
X74607Y-54429D01*
X74624Y-54463D01*
X74640Y-54530D01*
X74640Y-54581D01*
X74624Y-54648D01*
X74607Y-54682D01*
X74573Y-54716D01*
X74522Y-54733D01*
X74438Y-54733D01*
X74944Y-54496D02*
X74944Y-54733D01*
X74860Y-54361D02*
X74775Y-54615D01*
X74995Y-54615D01*
X74438Y-55863D02*
X74438Y-55508D01*
X74522Y-55508D01*
X74573Y-55525D01*
X74607Y-55559D01*
X74624Y-55593D01*
X74640Y-55660D01*
X74640Y-55711D01*
X74624Y-55778D01*
X74607Y-55812D01*
X74573Y-55846D01*
X74522Y-55863D01*
X74438Y-55863D01*
X74759Y-55508D02*
X74978Y-55508D01*
X74860Y-55643D01*
X74910Y-55643D01*
X74944Y-55660D01*
X74961Y-55677D01*
X74978Y-55711D01*
X74978Y-55795D01*
X74961Y-55829D01*
X74944Y-55846D01*
X74910Y-55863D01*
X74809Y-55863D01*
X74775Y-55846D01*
X74759Y-55829D01*
X74438Y-56993D02*
X74438Y-56638D01*
X74522Y-56638D01*
X74573Y-56655D01*
X74607Y-56689D01*
X74624Y-56723D01*
X74640Y-56790D01*
X74640Y-56841D01*
X74624Y-56908D01*
X74607Y-56942D01*
X74573Y-56976D01*
X74522Y-56993D01*
X74438Y-56993D01*
X74775Y-56672D02*
X74792Y-56655D01*
X74826Y-56638D01*
X74910Y-56638D01*
X74944Y-56655D01*
X74961Y-56672D01*
X74978Y-56706D01*
X74978Y-56739D01*
X74961Y-56790D01*
X74759Y-56993D01*
X74978Y-56993D01*
X74438Y-58122D02*
X74438Y-57768D01*
X74522Y-57768D01*
X74573Y-57785D01*
X74607Y-57819D01*
X74624Y-57852D01*
X74640Y-57920D01*
X74640Y-57971D01*
X74624Y-58038D01*
X74607Y-58072D01*
X74573Y-58106D01*
X74522Y-58122D01*
X74438Y-58122D01*
X74978Y-58122D02*
X74775Y-58122D01*
X74877Y-58122D02*
X74877Y-57768D01*
X74843Y-57819D01*
X74809Y-57852D01*
X74775Y-57869D01*
X74438Y-59252D02*
X74438Y-58898D01*
X74522Y-58898D01*
X74573Y-58915D01*
X74607Y-58949D01*
X74624Y-58982D01*
X74640Y-59050D01*
X74640Y-59101D01*
X74624Y-59168D01*
X74607Y-59202D01*
X74573Y-59235D01*
X74522Y-59252D01*
X74438Y-59252D01*
X74860Y-58898D02*
X74894Y-58898D01*
X74927Y-58915D01*
X74944Y-58932D01*
X74961Y-58966D01*
X74978Y-59033D01*
X74978Y-59117D01*
X74961Y-59185D01*
X74944Y-59219D01*
X74927Y-59235D01*
X74894Y-59252D01*
X74860Y-59252D01*
X74826Y-59235D01*
X74809Y-59219D01*
X74792Y-59185D01*
X74775Y-59117D01*
X74775Y-59033D01*
X74792Y-58966D01*
X74809Y-58932D01*
X74826Y-58915D01*
X74860Y-58898D01*
X108427Y-60539D02*
X108545Y-60893D01*
X108663Y-60539D01*
X108984Y-60859D02*
X108967Y-60876D01*
X108916Y-60893D01*
X108883Y-60893D01*
X108832Y-60876D01*
X108798Y-60842D01*
X108781Y-60809D01*
X108765Y-60741D01*
X108765Y-60690D01*
X108781Y-60623D01*
X108798Y-60589D01*
X108832Y-60555D01*
X108883Y-60539D01*
X108916Y-60539D01*
X108967Y-60555D01*
X108984Y-60572D01*
X109338Y-60859D02*
X109321Y-60876D01*
X109271Y-60893D01*
X109237Y-60893D01*
X109186Y-60876D01*
X109153Y-60842D01*
X109136Y-60809D01*
X109119Y-60741D01*
X109119Y-60690D01*
X109136Y-60623D01*
X109153Y-60589D01*
X109186Y-60555D01*
X109237Y-60539D01*
X109271Y-60539D01*
X109321Y-60555D01*
X109338Y-60572D01*
X84639Y-52639D02*
X84757Y-52993D01*
X84875Y-52639D01*
X85196Y-52959D02*
X85179Y-52976D01*
X85128Y-52993D01*
X85095Y-52993D01*
X85044Y-52976D01*
X85010Y-52942D01*
X84993Y-52909D01*
X84977Y-52841D01*
X84977Y-52790D01*
X84993Y-52723D01*
X85010Y-52689D01*
X85044Y-52655D01*
X85095Y-52639D01*
X85128Y-52639D01*
X85179Y-52655D01*
X85196Y-52672D01*
X85550Y-52959D02*
X85533Y-52976D01*
X85483Y-52993D01*
X85449Y-52993D01*
X85398Y-52976D01*
X85365Y-52942D01*
X85348Y-52909D01*
X85331Y-52841D01*
X85331Y-52790D01*
X85348Y-52723D01*
X85365Y-52689D01*
X85398Y-52655D01*
X85449Y-52639D01*
X85483Y-52639D01*
X85533Y-52655D01*
X85550Y-52672D01*
X86158Y-52655D02*
X86124Y-52639D01*
X86073Y-52639D01*
X86023Y-52655D01*
X85989Y-52689D01*
X85972Y-52723D01*
X85955Y-52790D01*
X85955Y-52841D01*
X85972Y-52909D01*
X85989Y-52942D01*
X86023Y-52976D01*
X86073Y-52993D01*
X86107Y-52993D01*
X86158Y-52976D01*
X86175Y-52959D01*
X86175Y-52841D01*
X86107Y-52841D01*
X86326Y-52993D02*
X86326Y-52639D01*
X86529Y-52993D01*
X86529Y-52639D01*
X86698Y-52993D02*
X86698Y-52639D01*
X86782Y-52639D01*
X86833Y-52655D01*
X86866Y-52689D01*
X86883Y-52723D01*
X86900Y-52790D01*
X86900Y-52841D01*
X86883Y-52909D01*
X86866Y-52942D01*
X86833Y-52976D01*
X86782Y-52993D01*
X86698Y-52993D01*
X87322Y-52993D02*
X87322Y-52639D01*
X87474Y-52892D02*
X87642Y-52892D01*
X87440Y-52993D02*
X87558Y-52639D01*
X87676Y-52993D01*
X88064Y-52993D02*
X88064Y-52639D01*
X88351Y-52807D02*
X88402Y-52824D01*
X88419Y-52841D01*
X88435Y-52875D01*
X88435Y-52925D01*
X88419Y-52959D01*
X88402Y-52976D01*
X88368Y-52993D01*
X88233Y-52993D01*
X88233Y-52639D01*
X88351Y-52639D01*
X88385Y-52655D01*
X88402Y-52672D01*
X88419Y-52706D01*
X88419Y-52740D01*
X88402Y-52774D01*
X88385Y-52790D01*
X88351Y-52807D01*
X88233Y-52807D01*
X88857Y-52993D02*
X88857Y-52639D01*
X89229Y-52959D02*
X89212Y-52976D01*
X89161Y-52993D01*
X89127Y-52993D01*
X89077Y-52976D01*
X89043Y-52942D01*
X89026Y-52909D01*
X89009Y-52841D01*
X89009Y-52790D01*
X89026Y-52723D01*
X89043Y-52689D01*
X89077Y-52655D01*
X89127Y-52639D01*
X89161Y-52639D01*
X89212Y-52655D01*
X89229Y-52672D01*
X89650Y-52993D02*
X89650Y-52639D01*
X89819Y-52993D02*
X89819Y-52639D01*
X89903Y-52639D01*
X89954Y-52655D01*
X89988Y-52689D01*
X90005Y-52723D01*
X90022Y-52790D01*
X90022Y-52841D01*
X90005Y-52909D01*
X89988Y-52942D01*
X89954Y-52976D01*
X89903Y-52993D01*
X89819Y-52993D01*
X90443Y-52993D02*
X90443Y-52639D01*
X90612Y-52807D02*
X90730Y-52807D01*
X90781Y-52993D02*
X90612Y-52993D01*
X90612Y-52639D01*
X90781Y-52639D01*
X91203Y-52993D02*
X91203Y-52639D01*
X91489Y-52807D02*
X91371Y-52807D01*
X91371Y-52993D02*
X91371Y-52639D01*
X91540Y-52639D01*
X91945Y-52993D02*
X91945Y-52639D01*
X92299Y-52655D02*
X92266Y-52639D01*
X92215Y-52639D01*
X92164Y-52655D01*
X92131Y-52689D01*
X92114Y-52723D01*
X92097Y-52790D01*
X92097Y-52841D01*
X92114Y-52909D01*
X92131Y-52942D01*
X92164Y-52976D01*
X92215Y-52993D01*
X92249Y-52993D01*
X92299Y-52976D01*
X92316Y-52959D01*
X92316Y-52841D01*
X92249Y-52841D01*
X92738Y-52993D02*
X92738Y-52639D01*
X92907Y-52993D02*
X92907Y-52639D01*
X92907Y-52807D02*
X93109Y-52807D01*
X93109Y-52993D02*
X93109Y-52639D01*
X84205Y-56839D02*
X84323Y-57193D01*
X84441Y-56839D01*
X84762Y-57159D02*
X84745Y-57176D01*
X84694Y-57193D01*
X84661Y-57193D01*
X84610Y-57176D01*
X84576Y-57142D01*
X84559Y-57109D01*
X84543Y-57041D01*
X84543Y-56990D01*
X84559Y-56923D01*
X84576Y-56889D01*
X84610Y-56855D01*
X84661Y-56839D01*
X84694Y-56839D01*
X84745Y-56855D01*
X84762Y-56872D01*
X85116Y-57159D02*
X85099Y-57176D01*
X85049Y-57193D01*
X85015Y-57193D01*
X84964Y-57176D01*
X84931Y-57142D01*
X84914Y-57109D01*
X84897Y-57041D01*
X84897Y-56990D01*
X84914Y-56923D01*
X84931Y-56889D01*
X84964Y-56855D01*
X85015Y-56839D01*
X85049Y-56839D01*
X85099Y-56855D01*
X85116Y-56872D01*
X85724Y-56855D02*
X85690Y-56839D01*
X85639Y-56839D01*
X85589Y-56855D01*
X85555Y-56889D01*
X85538Y-56923D01*
X85521Y-56990D01*
X85521Y-57041D01*
X85538Y-57109D01*
X85555Y-57142D01*
X85589Y-57176D01*
X85639Y-57193D01*
X85673Y-57193D01*
X85724Y-57176D01*
X85741Y-57159D01*
X85741Y-57041D01*
X85673Y-57041D01*
X85892Y-57193D02*
X85892Y-56839D01*
X86095Y-57193D01*
X86095Y-56839D01*
X86264Y-57193D02*
X86264Y-56839D01*
X86348Y-56839D01*
X86399Y-56855D01*
X86432Y-56889D01*
X86449Y-56923D01*
X86466Y-56990D01*
X86466Y-57041D01*
X86449Y-57109D01*
X86432Y-57142D01*
X86399Y-57176D01*
X86348Y-57193D01*
X86264Y-57193D01*
X86888Y-57193D02*
X86888Y-56839D01*
X86972Y-56839D01*
X87023Y-56855D01*
X87057Y-56889D01*
X87074Y-56923D01*
X87090Y-56990D01*
X87090Y-57041D01*
X87074Y-57109D01*
X87057Y-57142D01*
X87023Y-57176D01*
X86972Y-57193D01*
X86888Y-57193D01*
X87208Y-56839D02*
X87445Y-56839D01*
X87293Y-57193D01*
X87850Y-57193D02*
X87850Y-56839D01*
X87934Y-56839D01*
X87985Y-56855D01*
X88018Y-56889D01*
X88035Y-56923D01*
X88052Y-56990D01*
X88052Y-57041D01*
X88035Y-57109D01*
X88018Y-57142D01*
X87985Y-57176D01*
X87934Y-57193D01*
X87850Y-57193D01*
X88356Y-56839D02*
X88288Y-56839D01*
X88255Y-56855D01*
X88238Y-56872D01*
X88204Y-56923D01*
X88187Y-56990D01*
X88187Y-57125D01*
X88204Y-57159D01*
X88221Y-57176D01*
X88255Y-57193D01*
X88322Y-57193D01*
X88356Y-57176D01*
X88373Y-57159D01*
X88390Y-57125D01*
X88390Y-57041D01*
X88373Y-57007D01*
X88356Y-56990D01*
X88322Y-56974D01*
X88255Y-56974D01*
X88221Y-56990D01*
X88204Y-57007D01*
X88187Y-57041D01*
X88811Y-57193D02*
X88811Y-56839D01*
X88896Y-56839D01*
X88946Y-56855D01*
X88980Y-56889D01*
X88997Y-56923D01*
X89014Y-56990D01*
X89014Y-57041D01*
X88997Y-57109D01*
X88980Y-57142D01*
X88946Y-57176D01*
X88896Y-57193D01*
X88811Y-57193D01*
X89334Y-56839D02*
X89166Y-56839D01*
X89149Y-57007D01*
X89166Y-56990D01*
X89200Y-56974D01*
X89284Y-56974D01*
X89318Y-56990D01*
X89334Y-57007D01*
X89351Y-57041D01*
X89351Y-57125D01*
X89334Y-57159D01*
X89318Y-57176D01*
X89284Y-57193D01*
X89200Y-57193D01*
X89166Y-57176D01*
X89149Y-57159D01*
X89773Y-57193D02*
X89773Y-56839D01*
X89858Y-56839D01*
X89908Y-56855D01*
X89942Y-56889D01*
X89959Y-56923D01*
X89976Y-56990D01*
X89976Y-57041D01*
X89959Y-57109D01*
X89942Y-57142D01*
X89908Y-57176D01*
X89858Y-57193D01*
X89773Y-57193D01*
X90279Y-56957D02*
X90279Y-57193D01*
X90195Y-56822D02*
X90111Y-57075D01*
X90330Y-57075D01*
X90735Y-57193D02*
X90735Y-56839D01*
X90819Y-56839D01*
X90870Y-56855D01*
X90904Y-56889D01*
X90921Y-56923D01*
X90937Y-56990D01*
X90937Y-57041D01*
X90921Y-57109D01*
X90904Y-57142D01*
X90870Y-57176D01*
X90819Y-57193D01*
X90735Y-57193D01*
X91056Y-56839D02*
X91275Y-56839D01*
X91157Y-56974D01*
X91207Y-56974D01*
X91241Y-56990D01*
X91258Y-57007D01*
X91275Y-57041D01*
X91275Y-57125D01*
X91258Y-57159D01*
X91241Y-57176D01*
X91207Y-57193D01*
X91106Y-57193D01*
X91072Y-57176D01*
X91056Y-57159D01*
X91697Y-57193D02*
X91697Y-56839D01*
X91781Y-56839D01*
X91832Y-56855D01*
X91865Y-56889D01*
X91882Y-56923D01*
X91899Y-56990D01*
X91899Y-57041D01*
X91882Y-57109D01*
X91865Y-57142D01*
X91832Y-57176D01*
X91781Y-57193D01*
X91697Y-57193D01*
X92034Y-56872D02*
X92051Y-56855D01*
X92085Y-56839D01*
X92169Y-56839D01*
X92203Y-56855D01*
X92220Y-56872D01*
X92237Y-56906D01*
X92237Y-56940D01*
X92220Y-56990D01*
X92017Y-57193D01*
X92237Y-57193D01*
X92658Y-57193D02*
X92658Y-56839D01*
X92743Y-56839D01*
X92793Y-56855D01*
X92827Y-56889D01*
X92844Y-56923D01*
X92861Y-56990D01*
X92861Y-57041D01*
X92844Y-57109D01*
X92827Y-57142D01*
X92793Y-57176D01*
X92743Y-57193D01*
X92658Y-57193D01*
X93198Y-57193D02*
X92996Y-57193D01*
X93097Y-57193D02*
X93097Y-56839D01*
X93063Y-56889D01*
X93030Y-56923D01*
X92996Y-56940D01*
X93620Y-57193D02*
X93620Y-56839D01*
X93705Y-56839D01*
X93755Y-56855D01*
X93789Y-56889D01*
X93806Y-56923D01*
X93823Y-56990D01*
X93823Y-57041D01*
X93806Y-57109D01*
X93789Y-57142D01*
X93755Y-57176D01*
X93705Y-57193D01*
X93620Y-57193D01*
X94042Y-56839D02*
X94076Y-56839D01*
X94110Y-56855D01*
X94126Y-56872D01*
X94143Y-56906D01*
X94160Y-56974D01*
X94160Y-57058D01*
X94143Y-57125D01*
X94126Y-57159D01*
X94110Y-57176D01*
X94076Y-57193D01*
X94042Y-57193D01*
X94008Y-57176D01*
X93991Y-57159D01*
X93975Y-57125D01*
X93958Y-57058D01*
X93958Y-56974D01*
X93975Y-56906D01*
X93991Y-56872D01*
X94008Y-56855D01*
X94042Y-56839D01*
M02*
