G04 (created by PCBNEW (2013-07-07 BZR 4022)-stable) date 09-Jan-14 2:58:25 PM*
%MOIN*%
G04 Gerber Fmt 3.4, Leading zero omitted, Abs format*
%FSLAX34Y34*%
G01*
G70*
G90*
G04 APERTURE LIST*
%ADD10C,0.00590551*%
%ADD11R,0.08X0.08*%
%ADD12C,0.08*%
%ADD13R,0.0708661X0.0708661*%
%ADD14C,0.0708661*%
%ADD15C,0.055*%
%ADD16C,0.0590551*%
%ADD17C,0.06*%
%ADD18C,0.215*%
%ADD19R,0.0629921X0.0629921*%
%ADD20C,0.0629921*%
%ADD21R,0.055X0.055*%
%ADD22C,0.07*%
%ADD23R,0.07X0.07*%
%ADD24C,0.15748*%
G04 APERTURE END LIST*
G54D10*
G54D11*
X65893Y-66030D03*
G54D12*
X66893Y-66030D03*
X67893Y-66030D03*
X68893Y-66030D03*
X68893Y-42369D03*
X67893Y-42369D03*
X66893Y-42369D03*
X65893Y-42369D03*
X69893Y-66030D03*
X69885Y-42369D03*
G54D13*
X73664Y-58521D03*
G54D14*
X72664Y-58521D03*
X73664Y-57521D03*
X72664Y-57521D03*
X73664Y-56521D03*
X72664Y-56521D03*
X73664Y-55521D03*
X72664Y-55521D03*
X73664Y-54521D03*
X72664Y-54521D03*
X73664Y-53521D03*
X72664Y-53521D03*
X73664Y-52521D03*
X72664Y-52521D03*
X73664Y-51521D03*
X72664Y-51521D03*
G54D15*
X60600Y-46400D03*
X61600Y-46400D03*
G54D11*
X104496Y-66030D03*
G54D12*
X105496Y-66030D03*
X106496Y-66030D03*
X107496Y-66030D03*
X107496Y-42369D03*
X106496Y-42369D03*
X105496Y-42369D03*
X104496Y-42369D03*
X108496Y-66030D03*
X108488Y-42369D03*
G54D11*
X85185Y-66030D03*
G54D12*
X86185Y-66030D03*
X87185Y-66030D03*
X88185Y-66030D03*
X88185Y-42369D03*
X87185Y-42369D03*
X86185Y-42369D03*
X85185Y-42369D03*
X89185Y-66030D03*
X89177Y-42369D03*
G54D16*
X110950Y-55000D03*
X110950Y-61000D03*
X109800Y-54050D03*
X109800Y-60050D03*
X112050Y-56050D03*
X112050Y-62050D03*
X61600Y-66875D03*
X61600Y-60875D03*
X57900Y-66900D03*
X57900Y-60900D03*
X57800Y-46850D03*
X57800Y-52850D03*
X87200Y-49100D03*
X81200Y-49100D03*
G54D17*
X62100Y-52400D03*
X62100Y-48400D03*
X69100Y-59400D03*
X69100Y-55400D03*
X70050Y-58500D03*
X70050Y-54500D03*
X70950Y-57500D03*
X70950Y-53500D03*
G54D15*
X69900Y-64400D03*
X67900Y-64400D03*
G54D13*
X101746Y-61550D03*
G54D14*
X101746Y-62550D03*
G54D13*
X60575Y-50271D03*
G54D14*
X59575Y-50271D03*
G54D13*
X93700Y-54500D03*
G54D14*
X93700Y-55500D03*
X92700Y-54500D03*
X92700Y-55500D03*
X91700Y-54500D03*
X91700Y-55500D03*
X90700Y-54500D03*
X90700Y-55500D03*
X89700Y-54500D03*
X89700Y-55500D03*
X88700Y-54500D03*
X88700Y-55500D03*
X87700Y-54500D03*
X87700Y-55500D03*
X86700Y-54500D03*
X86700Y-55500D03*
X85700Y-54500D03*
X85700Y-55500D03*
X84700Y-54500D03*
X84700Y-55500D03*
G54D18*
X97200Y-54900D03*
X81200Y-54900D03*
G54D17*
X107400Y-48000D03*
X107400Y-44000D03*
X103600Y-49100D03*
X103600Y-45100D03*
X102600Y-49100D03*
X102600Y-45100D03*
X108500Y-48000D03*
X108500Y-44000D03*
X91100Y-47300D03*
X91100Y-43300D03*
X71900Y-47300D03*
X71900Y-43300D03*
G54D15*
X87200Y-46100D03*
X87200Y-44100D03*
X67900Y-46100D03*
X67900Y-44100D03*
G54D17*
X92200Y-48100D03*
X92200Y-44100D03*
X73100Y-48100D03*
X73100Y-44100D03*
G54D19*
X104100Y-52050D03*
G54D20*
X104100Y-53050D03*
X104100Y-54050D03*
X104100Y-55050D03*
X104100Y-56050D03*
X104100Y-57050D03*
X104100Y-58050D03*
X104100Y-59050D03*
X104100Y-60050D03*
X107100Y-60050D03*
X107100Y-59050D03*
X107100Y-58050D03*
X107100Y-57050D03*
X107100Y-56050D03*
X107100Y-55050D03*
X107100Y-54050D03*
X107100Y-53050D03*
X107100Y-52050D03*
G54D21*
X66650Y-59400D03*
G54D15*
X66650Y-58400D03*
X66650Y-57400D03*
X66650Y-56400D03*
X66650Y-55400D03*
X66650Y-54400D03*
X66650Y-53400D03*
X66650Y-52400D03*
X63650Y-52400D03*
X63650Y-53400D03*
X63650Y-54400D03*
X63650Y-55400D03*
X63650Y-56400D03*
X63650Y-57400D03*
X63650Y-58400D03*
X63650Y-59400D03*
G54D22*
X115025Y-66825D03*
X115025Y-65825D03*
G54D23*
X115025Y-64825D03*
G54D22*
X59700Y-66925D03*
X59700Y-65925D03*
G54D23*
X59700Y-64925D03*
G54D22*
X63475Y-66850D03*
X63475Y-65850D03*
G54D23*
X63475Y-64850D03*
G54D15*
X82450Y-68250D03*
X82450Y-66250D03*
X89200Y-64450D03*
X87200Y-64450D03*
X106500Y-64450D03*
X104500Y-64450D03*
G54D24*
X117950Y-40300D03*
X117900Y-67975D03*
X56250Y-68075D03*
X56325Y-40300D03*
M02*
