G04 (created by PCBNEW (2013-07-07 BZR 4022)-stable) date 09-Jan-14 2:58:25 PM*
%MOIN*%
G04 Gerber Fmt 3.4, Leading zero omitted, Abs format*
%FSLAX34Y34*%
G01*
G70*
G90*
G04 APERTURE LIST*
%ADD10C,0.00590551*%
%ADD11R,0.08X0.08*%
%ADD12C,0.08*%
%ADD13R,0.0708661X0.0708661*%
%ADD14C,0.0708661*%
%ADD15C,0.055*%
%ADD16C,0.0590551*%
%ADD17C,0.06*%
%ADD18C,0.215*%
%ADD19R,0.0629921X0.0629921*%
%ADD20C,0.0629921*%
%ADD21R,0.055X0.055*%
%ADD22C,0.07*%
%ADD23R,0.07X0.07*%
%ADD24C,0.15748*%
%ADD25C,0.0393701*%
%ADD26C,0.023622*%
%ADD27C,0.01*%
G04 APERTURE END LIST*
G54D10*
G54D11*
X65893Y-66030D03*
G54D12*
X66893Y-66030D03*
X67893Y-66030D03*
X68893Y-66030D03*
X68893Y-42369D03*
X67893Y-42369D03*
X66893Y-42369D03*
X65893Y-42369D03*
X69893Y-66030D03*
X69885Y-42369D03*
G54D13*
X73664Y-58521D03*
G54D14*
X72664Y-58521D03*
X73664Y-57521D03*
X72664Y-57521D03*
X73664Y-56521D03*
X72664Y-56521D03*
X73664Y-55521D03*
X72664Y-55521D03*
X73664Y-54521D03*
X72664Y-54521D03*
X73664Y-53521D03*
X72664Y-53521D03*
X73664Y-52521D03*
X72664Y-52521D03*
X73664Y-51521D03*
X72664Y-51521D03*
G54D15*
X60600Y-46400D03*
X61600Y-46400D03*
G54D11*
X104496Y-66030D03*
G54D12*
X105496Y-66030D03*
X106496Y-66030D03*
X107496Y-66030D03*
X107496Y-42369D03*
X106496Y-42369D03*
X105496Y-42369D03*
X104496Y-42369D03*
X108496Y-66030D03*
X108488Y-42369D03*
G54D11*
X85185Y-66030D03*
G54D12*
X86185Y-66030D03*
X87185Y-66030D03*
X88185Y-66030D03*
X88185Y-42369D03*
X87185Y-42369D03*
X86185Y-42369D03*
X85185Y-42369D03*
X89185Y-66030D03*
X89177Y-42369D03*
G54D16*
X110950Y-55000D03*
X110950Y-61000D03*
X109800Y-54050D03*
X109800Y-60050D03*
X112050Y-56050D03*
X112050Y-62050D03*
X61600Y-66875D03*
X61600Y-60875D03*
X57900Y-66900D03*
X57900Y-60900D03*
X57800Y-46850D03*
X57800Y-52850D03*
X87200Y-49100D03*
X81200Y-49100D03*
G54D17*
X62100Y-52400D03*
X62100Y-48400D03*
X69100Y-59400D03*
X69100Y-55400D03*
X70050Y-58500D03*
X70050Y-54500D03*
X70950Y-57500D03*
X70950Y-53500D03*
G54D15*
X69900Y-64400D03*
X67900Y-64400D03*
G54D13*
X101746Y-61550D03*
G54D14*
X101746Y-62550D03*
G54D13*
X60575Y-50271D03*
G54D14*
X59575Y-50271D03*
G54D13*
X93700Y-54500D03*
G54D14*
X93700Y-55500D03*
X92700Y-54500D03*
X92700Y-55500D03*
X91700Y-54500D03*
X91700Y-55500D03*
X90700Y-54500D03*
X90700Y-55500D03*
X89700Y-54500D03*
X89700Y-55500D03*
X88700Y-54500D03*
X88700Y-55500D03*
X87700Y-54500D03*
X87700Y-55500D03*
X86700Y-54500D03*
X86700Y-55500D03*
X85700Y-54500D03*
X85700Y-55500D03*
X84700Y-54500D03*
X84700Y-55500D03*
G54D18*
X97200Y-54900D03*
X81200Y-54900D03*
G54D17*
X107400Y-48000D03*
X107400Y-44000D03*
X103600Y-49100D03*
X103600Y-45100D03*
X102600Y-49100D03*
X102600Y-45100D03*
X108500Y-48000D03*
X108500Y-44000D03*
X91100Y-47300D03*
X91100Y-43300D03*
X71900Y-47300D03*
X71900Y-43300D03*
G54D15*
X87200Y-46100D03*
X87200Y-44100D03*
X67900Y-46100D03*
X67900Y-44100D03*
G54D17*
X92200Y-48100D03*
X92200Y-44100D03*
X73100Y-48100D03*
X73100Y-44100D03*
G54D19*
X104100Y-52050D03*
G54D20*
X104100Y-53050D03*
X104100Y-54050D03*
X104100Y-55050D03*
X104100Y-56050D03*
X104100Y-57050D03*
X104100Y-58050D03*
X104100Y-59050D03*
X104100Y-60050D03*
X107100Y-60050D03*
X107100Y-59050D03*
X107100Y-58050D03*
X107100Y-57050D03*
X107100Y-56050D03*
X107100Y-55050D03*
X107100Y-54050D03*
X107100Y-53050D03*
X107100Y-52050D03*
G54D21*
X66650Y-59400D03*
G54D15*
X66650Y-58400D03*
X66650Y-57400D03*
X66650Y-56400D03*
X66650Y-55400D03*
X66650Y-54400D03*
X66650Y-53400D03*
X66650Y-52400D03*
X63650Y-52400D03*
X63650Y-53400D03*
X63650Y-54400D03*
X63650Y-55400D03*
X63650Y-56400D03*
X63650Y-57400D03*
X63650Y-58400D03*
X63650Y-59400D03*
G54D22*
X115025Y-66825D03*
X115025Y-65825D03*
G54D23*
X115025Y-64825D03*
G54D22*
X59700Y-66925D03*
X59700Y-65925D03*
G54D23*
X59700Y-64925D03*
G54D22*
X63475Y-66850D03*
X63475Y-65850D03*
G54D23*
X63475Y-64850D03*
G54D15*
X82450Y-68250D03*
X82450Y-66250D03*
X89200Y-64450D03*
X87200Y-64450D03*
X106500Y-64450D03*
X104500Y-64450D03*
G54D24*
X117950Y-40300D03*
X117900Y-67975D03*
X56250Y-68075D03*
X56325Y-40300D03*
G54D25*
X66650Y-59400D02*
X69100Y-59400D01*
X69100Y-59400D02*
X71785Y-59400D01*
X71785Y-59400D02*
X72664Y-58521D01*
X69100Y-55400D02*
X72542Y-55400D01*
X72542Y-55400D02*
X72664Y-55521D01*
X69950Y-58400D02*
X70050Y-58500D01*
X70050Y-58500D02*
X71350Y-58500D01*
X72328Y-57521D02*
X72664Y-57521D01*
X71350Y-58500D02*
X72328Y-57521D01*
X66650Y-58400D02*
X69950Y-58400D01*
X70050Y-54500D02*
X72642Y-54500D01*
X72642Y-54500D02*
X72664Y-54521D01*
X66650Y-57400D02*
X70850Y-57400D01*
X70850Y-57400D02*
X70950Y-57500D01*
X70950Y-57500D02*
X70950Y-56900D01*
X71328Y-56521D02*
X72664Y-56521D01*
X70950Y-56900D02*
X71328Y-56521D01*
X70950Y-53500D02*
X72642Y-53500D01*
X72642Y-53500D02*
X72664Y-53521D01*
X108496Y-66030D02*
X114819Y-66030D01*
X114819Y-66030D02*
X115025Y-65825D01*
X59700Y-65925D02*
X60400Y-65925D01*
X61250Y-68250D02*
X82450Y-68250D01*
X60700Y-67700D02*
X61250Y-68250D01*
X60700Y-66225D02*
X60700Y-67700D01*
X60400Y-65925D02*
X60700Y-66225D01*
X82450Y-66250D02*
X84965Y-66250D01*
X84965Y-66250D02*
X85185Y-66030D01*
X63475Y-65850D02*
X65712Y-65850D01*
X65712Y-65850D02*
X65893Y-66030D01*
G54D26*
X86700Y-54500D02*
X86700Y-53650D01*
X102300Y-52050D02*
X104200Y-52050D01*
X101300Y-51050D02*
X102300Y-52050D01*
X89300Y-51050D02*
X101300Y-51050D01*
X86700Y-53650D02*
X89300Y-51050D01*
X87700Y-54500D02*
X87700Y-53850D01*
X101800Y-53050D02*
X104200Y-53050D01*
X100300Y-51550D02*
X101800Y-53050D01*
X90000Y-51550D02*
X100300Y-51550D01*
X87700Y-53850D02*
X90000Y-51550D01*
X88700Y-54500D02*
X88700Y-53850D01*
X101900Y-54050D02*
X104200Y-54050D01*
X99800Y-51950D02*
X101900Y-54050D01*
X90600Y-51950D02*
X99800Y-51950D01*
X88700Y-53850D02*
X90600Y-51950D01*
X89700Y-54500D02*
X89700Y-53850D01*
X101400Y-55050D02*
X104200Y-55050D01*
X98700Y-52350D02*
X101400Y-55050D01*
X91200Y-52350D02*
X98700Y-52350D01*
X89700Y-53850D02*
X91200Y-52350D01*
X90700Y-54500D02*
X90700Y-53550D01*
X101100Y-56050D02*
X104200Y-56050D01*
X97800Y-52750D02*
X101100Y-56050D01*
X91500Y-52750D02*
X97800Y-52750D01*
X90700Y-53550D02*
X91500Y-52750D01*
X91700Y-54500D02*
X91700Y-53750D01*
X96000Y-57050D02*
X104200Y-57050D01*
X95600Y-56650D02*
X96000Y-57050D01*
X95600Y-53850D02*
X95600Y-56650D01*
X91700Y-53750D02*
X92200Y-53250D01*
X95000Y-53250D02*
X95600Y-53850D01*
X92200Y-53250D02*
X95000Y-53250D01*
X92700Y-54500D02*
X92700Y-53950D01*
X95700Y-58050D02*
X104200Y-58050D01*
X95100Y-57450D02*
X95700Y-58050D01*
X95100Y-54550D02*
X95100Y-57450D01*
X94300Y-53750D02*
X95100Y-54550D01*
X92900Y-53750D02*
X94300Y-53750D01*
X92700Y-53950D02*
X92900Y-53750D01*
X93700Y-54500D02*
X93750Y-54500D01*
X95700Y-59050D02*
X104200Y-59050D01*
X94600Y-57950D02*
X95700Y-59050D01*
X93750Y-54500D02*
X94600Y-55350D01*
X94600Y-55350D02*
X94600Y-57950D01*
G54D25*
X86180Y-44220D02*
X86220Y-44220D01*
X102650Y-46050D02*
X103600Y-45100D01*
X101850Y-46050D02*
X102650Y-46050D01*
X100900Y-45100D02*
X101850Y-46050D01*
X87100Y-45100D02*
X100900Y-45100D01*
X86220Y-44220D02*
X87100Y-45100D01*
X105496Y-42369D02*
X105496Y-43203D01*
X105496Y-43203D02*
X103600Y-45100D01*
X83140Y-45160D02*
X67980Y-45160D01*
X86180Y-44220D02*
X86166Y-44234D01*
X86166Y-44234D02*
X85240Y-45160D01*
X85240Y-45160D02*
X83140Y-45160D01*
X86185Y-44220D02*
X86180Y-44220D01*
X66893Y-44073D02*
X66893Y-42369D01*
X67980Y-45160D02*
X66893Y-44073D01*
X86185Y-44220D02*
X86185Y-42369D01*
X102600Y-45100D02*
X102600Y-43400D01*
X103630Y-42369D02*
X104496Y-42369D01*
X102600Y-43400D02*
X103630Y-42369D01*
X85200Y-42269D02*
X85200Y-41500D01*
X103180Y-40950D02*
X104500Y-42269D01*
X85750Y-40950D02*
X103180Y-40950D01*
X85200Y-41500D02*
X85750Y-40950D01*
X65900Y-42269D02*
X65900Y-41400D01*
X65900Y-41400D02*
X65900Y-41250D01*
X83880Y-40950D02*
X85200Y-42269D01*
X66200Y-40950D02*
X83880Y-40950D01*
X65900Y-41250D02*
X66200Y-40950D01*
X105496Y-66030D02*
X105496Y-64328D01*
X109800Y-60800D02*
X109800Y-60050D01*
X106875Y-63725D02*
X109800Y-60800D01*
X106100Y-63725D02*
X106875Y-63725D01*
X105496Y-64328D02*
X106100Y-63725D01*
X86200Y-66750D02*
X86290Y-66750D01*
X105496Y-66783D02*
X105496Y-66030D01*
X105160Y-67120D02*
X105496Y-66783D01*
X86660Y-67120D02*
X105160Y-67120D01*
X86290Y-66750D02*
X86660Y-67120D01*
X66900Y-65930D02*
X66900Y-66800D01*
X86200Y-66750D02*
X86200Y-65930D01*
X85750Y-67200D02*
X86200Y-66750D01*
X67300Y-67200D02*
X85750Y-67200D01*
X66900Y-66800D02*
X67300Y-67200D01*
X106496Y-66030D02*
X106496Y-64453D01*
X106496Y-64453D02*
X106500Y-64450D01*
X106500Y-64450D02*
X107375Y-64450D01*
X110825Y-61000D02*
X110950Y-61000D01*
X107375Y-64450D02*
X110825Y-61000D01*
X89200Y-64450D02*
X104500Y-64450D01*
X87200Y-64450D02*
X87200Y-66015D01*
X87200Y-66015D02*
X87185Y-66030D01*
X69900Y-64400D02*
X87150Y-64400D01*
X87150Y-64400D02*
X87200Y-64450D01*
X67893Y-66030D02*
X67893Y-64406D01*
X67893Y-64406D02*
X67900Y-64400D01*
X107496Y-66030D02*
X107496Y-65478D01*
X107496Y-65478D02*
X108900Y-64075D01*
X108900Y-64075D02*
X111025Y-64075D01*
X111025Y-64075D02*
X112050Y-63050D01*
X112050Y-63050D02*
X112050Y-62050D01*
X88185Y-64024D02*
X88185Y-64005D01*
X88185Y-64024D02*
X88185Y-66030D01*
X68893Y-64296D02*
X68893Y-64350D01*
X68893Y-64350D02*
X68893Y-66030D01*
X70220Y-62970D02*
X68893Y-64296D01*
X87150Y-62970D02*
X70220Y-62970D01*
X88185Y-64005D02*
X87150Y-62970D01*
X91100Y-47300D02*
X104100Y-47300D01*
X104100Y-47300D02*
X107400Y-44000D01*
X71900Y-47300D02*
X91100Y-47300D01*
X107496Y-42369D02*
X107496Y-43943D01*
X107496Y-43943D02*
X107430Y-44010D01*
X88185Y-42369D02*
X88185Y-42985D01*
X88500Y-43300D02*
X91100Y-43300D01*
X88185Y-42985D02*
X88500Y-43300D01*
X68893Y-42369D02*
X68893Y-42893D01*
X69300Y-43300D02*
X71900Y-43300D01*
X68893Y-42893D02*
X69300Y-43300D01*
X92200Y-48100D02*
X73100Y-48100D01*
X108500Y-44000D02*
X108500Y-44200D01*
X104600Y-48100D02*
X92200Y-48100D01*
X108500Y-44200D02*
X104600Y-48100D01*
X108488Y-42369D02*
X108488Y-43976D01*
X108488Y-43976D02*
X108526Y-44014D01*
X89177Y-42369D02*
X91769Y-42369D01*
X92200Y-42800D02*
X92200Y-44100D01*
X91769Y-42369D02*
X92200Y-42800D01*
X69885Y-42369D02*
X72269Y-42369D01*
X73100Y-43200D02*
X73100Y-44100D01*
X72269Y-42369D02*
X73100Y-43200D01*
X87200Y-46100D02*
X100400Y-46100D01*
X106496Y-43453D02*
X106496Y-42369D01*
X103300Y-46650D02*
X106496Y-43453D01*
X100950Y-46650D02*
X103300Y-46650D01*
X100400Y-46100D02*
X100950Y-46650D01*
X67900Y-46100D02*
X67900Y-47500D01*
X69500Y-49100D02*
X81200Y-49100D01*
X67900Y-47500D02*
X69500Y-49100D01*
X67900Y-46100D02*
X87200Y-46100D01*
X87200Y-44100D02*
X87200Y-43700D01*
X87200Y-43900D02*
X87200Y-43700D01*
X87200Y-43700D02*
X87200Y-42384D01*
X87200Y-42384D02*
X87185Y-42369D01*
X67900Y-44100D02*
X67900Y-43400D01*
X67900Y-43400D02*
X67893Y-43400D01*
X67893Y-42369D02*
X67893Y-43400D01*
X67893Y-43400D02*
X67893Y-43693D01*
X67893Y-43693D02*
X67900Y-43700D01*
X101746Y-62550D02*
X87950Y-62550D01*
X63400Y-64925D02*
X59700Y-64925D01*
X66125Y-62200D02*
X63400Y-64925D01*
X87600Y-62200D02*
X66125Y-62200D01*
X87950Y-62550D02*
X87600Y-62200D01*
X101746Y-62550D02*
X105750Y-62550D01*
X114600Y-64825D02*
X115025Y-64825D01*
X113900Y-64125D02*
X114600Y-64825D01*
X113900Y-62075D02*
X113900Y-64125D01*
X111125Y-59300D02*
X113900Y-62075D01*
X109000Y-59300D02*
X111125Y-59300D01*
X105750Y-62550D02*
X109000Y-59300D01*
X60600Y-46400D02*
X60600Y-43150D01*
X115025Y-43550D02*
X115025Y-64825D01*
X111550Y-40075D02*
X115025Y-43550D01*
X63675Y-40075D02*
X111550Y-40075D01*
X60600Y-43150D02*
X63675Y-40075D01*
X60575Y-50271D02*
X60575Y-46425D01*
X60575Y-46425D02*
X60600Y-46400D01*
X60575Y-50271D02*
X62725Y-50271D01*
X82696Y-50246D02*
X84700Y-52250D01*
X84700Y-52250D02*
X84700Y-54500D01*
X62750Y-50246D02*
X82696Y-50246D01*
X62725Y-50271D02*
X62750Y-50246D01*
X84700Y-54500D02*
X84700Y-55500D01*
X57900Y-60900D02*
X59550Y-60900D01*
X62050Y-58400D02*
X63650Y-58400D01*
X59550Y-60900D02*
X62050Y-58400D01*
X73664Y-53521D02*
X77121Y-53521D01*
X88700Y-56100D02*
X88700Y-55500D01*
X88150Y-56650D02*
X88700Y-56100D01*
X80250Y-56650D02*
X88150Y-56650D01*
X77121Y-53521D02*
X80250Y-56650D01*
X73664Y-54521D02*
X76621Y-54521D01*
X89700Y-56500D02*
X89700Y-55500D01*
X89000Y-57200D02*
X89700Y-56500D01*
X79300Y-57200D02*
X89000Y-57200D01*
X76621Y-54521D02*
X79300Y-57200D01*
X73664Y-55521D02*
X76621Y-55521D01*
X90700Y-56900D02*
X90700Y-55500D01*
X89750Y-57850D02*
X90700Y-56900D01*
X78950Y-57850D02*
X89750Y-57850D01*
X76621Y-55521D02*
X78950Y-57850D01*
X73664Y-56521D02*
X76621Y-56521D01*
X91700Y-57050D02*
X91700Y-55500D01*
X90300Y-58450D02*
X91700Y-57050D01*
X78550Y-58450D02*
X90300Y-58450D01*
X76621Y-56521D02*
X78550Y-58450D01*
X73664Y-57521D02*
X76321Y-57521D01*
X92700Y-57150D02*
X92700Y-55500D01*
X90650Y-59200D02*
X92700Y-57150D01*
X78000Y-59200D02*
X90650Y-59200D01*
X76321Y-57521D02*
X78000Y-59200D01*
X73664Y-58521D02*
X76021Y-58521D01*
X93700Y-57250D02*
X93700Y-55500D01*
X91050Y-59900D02*
X93700Y-57250D01*
X77400Y-59900D02*
X91050Y-59900D01*
X76021Y-58521D02*
X77400Y-59900D01*
X63650Y-57400D02*
X59250Y-57400D01*
X60225Y-62250D02*
X61600Y-60875D01*
X57775Y-62250D02*
X60225Y-62250D01*
X57100Y-61575D02*
X57775Y-62250D01*
X57100Y-59550D02*
X57100Y-61575D01*
X59250Y-57400D02*
X57100Y-59550D01*
X63650Y-59400D02*
X63650Y-61150D01*
X56150Y-54500D02*
X57800Y-52850D01*
X56150Y-62050D02*
X56150Y-54500D01*
X57500Y-63400D02*
X56150Y-62050D01*
X61400Y-63400D02*
X57500Y-63400D01*
X63650Y-61150D02*
X61400Y-63400D01*
X57900Y-66900D02*
X59675Y-66900D01*
X59675Y-66900D02*
X59700Y-66925D01*
X57800Y-46850D02*
X57800Y-43850D01*
X115750Y-66825D02*
X115025Y-66825D01*
X116625Y-65950D02*
X115750Y-66825D01*
X116625Y-42775D02*
X116625Y-65950D01*
X113275Y-39425D02*
X116625Y-42775D01*
X62225Y-39425D02*
X113275Y-39425D01*
X57800Y-43850D02*
X62225Y-39425D01*
X101746Y-61550D02*
X105600Y-61550D01*
X105600Y-61550D02*
X107100Y-60050D01*
X102600Y-49100D02*
X102600Y-49550D01*
X106550Y-53050D02*
X107100Y-53050D01*
X106300Y-52800D02*
X106550Y-53050D01*
X106300Y-50700D02*
X106300Y-52800D01*
X105700Y-50100D02*
X106300Y-50700D01*
X103150Y-50100D02*
X105700Y-50100D01*
X102600Y-49550D02*
X103150Y-50100D01*
X103600Y-49100D02*
X106600Y-49100D01*
X106600Y-49100D02*
X107100Y-49600D01*
X107100Y-49600D02*
X107100Y-52050D01*
X107100Y-54050D02*
X109800Y-54050D01*
X59575Y-50271D02*
X59575Y-52150D01*
X62800Y-53250D02*
X63650Y-52400D01*
X60675Y-53250D02*
X62800Y-53250D01*
X59575Y-52150D02*
X60675Y-53250D01*
X61600Y-66875D02*
X63450Y-66875D01*
X63450Y-66875D02*
X63475Y-66850D01*
X87200Y-49100D02*
X101250Y-49100D01*
X106300Y-59050D02*
X107100Y-59050D01*
X105700Y-58450D02*
X106300Y-59050D01*
X105700Y-51300D02*
X105700Y-58450D01*
X105200Y-50800D02*
X105700Y-51300D01*
X102950Y-50800D02*
X105200Y-50800D01*
X101250Y-49100D02*
X102950Y-50800D01*
X108500Y-48000D02*
X108550Y-48000D01*
X113600Y-58050D02*
X107100Y-58050D01*
X114300Y-57350D02*
X113600Y-58050D01*
X114300Y-53750D02*
X114300Y-57350D01*
X108550Y-48000D02*
X114300Y-53750D01*
X107100Y-57050D02*
X112700Y-57050D01*
X113450Y-54050D02*
X107400Y-48000D01*
X113450Y-56300D02*
X113450Y-54050D01*
X112700Y-57050D02*
X113450Y-56300D01*
X107100Y-56050D02*
X112050Y-56050D01*
X107100Y-55050D02*
X110900Y-55050D01*
X110900Y-55050D02*
X110950Y-55000D01*
G54D10*
G36*
X118966Y-68926D02*
X118314Y-68926D01*
X118486Y-68854D01*
X118778Y-68563D01*
X118937Y-68182D01*
X118937Y-67769D01*
X118779Y-67388D01*
X118488Y-67096D01*
X118107Y-66937D01*
X117694Y-66937D01*
X117313Y-67095D01*
X117021Y-67386D01*
X116862Y-67767D01*
X116862Y-68180D01*
X117020Y-68561D01*
X117311Y-68853D01*
X117471Y-68920D01*
X116556Y-68920D01*
X116505Y-68930D01*
X56861Y-68930D01*
X57128Y-68663D01*
X57287Y-68282D01*
X57287Y-67869D01*
X57129Y-67488D01*
X56838Y-67196D01*
X56457Y-67037D01*
X56044Y-67037D01*
X55663Y-67195D01*
X55371Y-67486D01*
X55344Y-67550D01*
X55344Y-40644D01*
X55445Y-40886D01*
X55736Y-41178D01*
X56117Y-41337D01*
X56530Y-41337D01*
X56911Y-41179D01*
X57203Y-40888D01*
X57362Y-40507D01*
X57362Y-40094D01*
X57204Y-39713D01*
X56913Y-39421D01*
X56849Y-39394D01*
X61623Y-39394D01*
X57484Y-43534D01*
X57387Y-43678D01*
X57353Y-43850D01*
X57353Y-46525D01*
X57338Y-46540D01*
X57254Y-46741D01*
X57254Y-46957D01*
X57337Y-47158D01*
X57490Y-47311D01*
X57691Y-47395D01*
X57907Y-47395D01*
X58108Y-47312D01*
X58261Y-47159D01*
X58345Y-46958D01*
X58345Y-46742D01*
X58262Y-46541D01*
X58246Y-46525D01*
X58246Y-44035D01*
X62410Y-39871D01*
X63246Y-39871D01*
X60284Y-42834D01*
X60187Y-42978D01*
X60153Y-43150D01*
X60153Y-46107D01*
X60075Y-46295D01*
X60074Y-46503D01*
X60128Y-46632D01*
X60128Y-49684D01*
X60079Y-49704D01*
X60008Y-49774D01*
X59986Y-49828D01*
X59917Y-49758D01*
X59695Y-49666D01*
X59455Y-49666D01*
X59233Y-49758D01*
X59062Y-49928D01*
X58970Y-50150D01*
X58970Y-50390D01*
X59062Y-50612D01*
X59128Y-50678D01*
X59128Y-52150D01*
X59162Y-52321D01*
X59259Y-52465D01*
X60359Y-53565D01*
X60359Y-53565D01*
X60503Y-53662D01*
X60675Y-53696D01*
X62800Y-53696D01*
X62971Y-53662D01*
X62971Y-53662D01*
X63115Y-53565D01*
X63140Y-53541D01*
X63204Y-53697D01*
X63352Y-53844D01*
X63485Y-53900D01*
X63353Y-53954D01*
X63205Y-54102D01*
X63125Y-54295D01*
X63124Y-54503D01*
X63204Y-54697D01*
X63352Y-54844D01*
X63485Y-54900D01*
X63353Y-54954D01*
X63205Y-55102D01*
X63125Y-55295D01*
X63124Y-55503D01*
X63204Y-55697D01*
X63352Y-55844D01*
X63485Y-55900D01*
X63353Y-55954D01*
X63205Y-56102D01*
X63125Y-56295D01*
X63124Y-56503D01*
X63204Y-56697D01*
X63352Y-56844D01*
X63485Y-56900D01*
X63356Y-56953D01*
X59250Y-56953D01*
X59078Y-56987D01*
X58934Y-57084D01*
X56784Y-59234D01*
X56687Y-59378D01*
X56653Y-59550D01*
X56653Y-61575D01*
X56687Y-61746D01*
X56784Y-61890D01*
X57459Y-62565D01*
X57603Y-62662D01*
X57603Y-62662D01*
X57775Y-62696D01*
X60225Y-62696D01*
X60396Y-62662D01*
X60396Y-62662D01*
X60540Y-62565D01*
X61686Y-61420D01*
X61707Y-61420D01*
X61908Y-61337D01*
X62061Y-61184D01*
X62145Y-60983D01*
X62145Y-60767D01*
X62062Y-60566D01*
X61909Y-60413D01*
X61708Y-60329D01*
X61492Y-60329D01*
X61291Y-60412D01*
X61138Y-60565D01*
X61054Y-60766D01*
X61054Y-60788D01*
X60039Y-61803D01*
X57960Y-61803D01*
X57546Y-61389D01*
X57546Y-61318D01*
X57590Y-61361D01*
X57791Y-61445D01*
X58007Y-61445D01*
X58208Y-61362D01*
X58224Y-61346D01*
X59550Y-61346D01*
X59721Y-61312D01*
X59721Y-61312D01*
X59865Y-61215D01*
X62235Y-58846D01*
X63357Y-58846D01*
X63485Y-58900D01*
X63353Y-58954D01*
X63205Y-59102D01*
X63125Y-59295D01*
X63124Y-59503D01*
X63203Y-59693D01*
X63203Y-60964D01*
X61214Y-62953D01*
X57685Y-62953D01*
X56596Y-61864D01*
X56596Y-54685D01*
X57886Y-53395D01*
X57907Y-53395D01*
X58108Y-53312D01*
X58261Y-53159D01*
X58345Y-52958D01*
X58345Y-52742D01*
X58262Y-52541D01*
X58109Y-52388D01*
X57908Y-52304D01*
X57692Y-52304D01*
X57491Y-52387D01*
X57338Y-52540D01*
X57254Y-52741D01*
X57254Y-52763D01*
X55834Y-54184D01*
X55737Y-54328D01*
X55703Y-54500D01*
X55703Y-62050D01*
X55737Y-62221D01*
X55834Y-62365D01*
X57184Y-63715D01*
X57328Y-63812D01*
X57500Y-63846D01*
X61400Y-63846D01*
X61571Y-63812D01*
X61571Y-63812D01*
X61715Y-63715D01*
X63965Y-61465D01*
X63965Y-61465D01*
X64062Y-61321D01*
X64096Y-61150D01*
X64096Y-61150D01*
X64096Y-59692D01*
X64174Y-59504D01*
X64175Y-59296D01*
X64095Y-59103D01*
X63947Y-58955D01*
X63814Y-58899D01*
X63947Y-58845D01*
X64094Y-58697D01*
X64174Y-58504D01*
X64175Y-58296D01*
X64095Y-58103D01*
X63947Y-57955D01*
X63814Y-57899D01*
X63947Y-57845D01*
X64094Y-57697D01*
X64174Y-57504D01*
X64175Y-57296D01*
X64095Y-57103D01*
X63947Y-56955D01*
X63814Y-56899D01*
X63947Y-56845D01*
X64094Y-56697D01*
X64174Y-56504D01*
X64175Y-56296D01*
X64095Y-56103D01*
X63947Y-55955D01*
X63814Y-55899D01*
X63947Y-55845D01*
X64094Y-55697D01*
X64174Y-55504D01*
X64175Y-55296D01*
X64095Y-55103D01*
X63947Y-54955D01*
X63814Y-54899D01*
X63947Y-54845D01*
X64094Y-54697D01*
X64174Y-54504D01*
X64175Y-54296D01*
X64095Y-54103D01*
X63947Y-53955D01*
X63814Y-53899D01*
X63947Y-53845D01*
X64094Y-53697D01*
X64174Y-53504D01*
X64175Y-53296D01*
X64095Y-53103D01*
X63947Y-52955D01*
X63814Y-52899D01*
X63947Y-52845D01*
X64094Y-52697D01*
X64174Y-52504D01*
X64175Y-52296D01*
X64095Y-52103D01*
X63947Y-51955D01*
X63754Y-51875D01*
X63546Y-51874D01*
X63353Y-51954D01*
X63205Y-52102D01*
X63126Y-52291D01*
X62654Y-52763D01*
X62654Y-52481D01*
X62643Y-52263D01*
X62581Y-52112D01*
X62485Y-52084D01*
X62415Y-52155D01*
X62415Y-52014D01*
X62387Y-51918D01*
X62181Y-51845D01*
X61963Y-51856D01*
X61812Y-51918D01*
X61784Y-52014D01*
X62100Y-52329D01*
X62415Y-52014D01*
X62415Y-52155D01*
X62170Y-52400D01*
X62485Y-52715D01*
X62581Y-52687D01*
X62654Y-52481D01*
X62654Y-52763D01*
X62614Y-52803D01*
X62410Y-52803D01*
X62415Y-52785D01*
X62100Y-52470D01*
X62029Y-52541D01*
X62029Y-52400D01*
X61714Y-52084D01*
X61618Y-52112D01*
X61545Y-52318D01*
X61556Y-52536D01*
X61618Y-52687D01*
X61714Y-52715D01*
X62029Y-52400D01*
X62029Y-52541D01*
X61784Y-52785D01*
X61789Y-52803D01*
X60860Y-52803D01*
X60021Y-51964D01*
X60021Y-50780D01*
X60078Y-50837D01*
X60170Y-50875D01*
X60270Y-50875D01*
X60978Y-50875D01*
X61070Y-50837D01*
X61141Y-50767D01*
X61161Y-50717D01*
X62725Y-50717D01*
X62850Y-50692D01*
X62850Y-50692D01*
X82510Y-50692D01*
X84253Y-52435D01*
X84253Y-54092D01*
X84187Y-54157D01*
X84095Y-54379D01*
X84095Y-54619D01*
X84187Y-54841D01*
X84253Y-54907D01*
X84253Y-55092D01*
X84187Y-55157D01*
X84095Y-55379D01*
X84095Y-55619D01*
X84187Y-55841D01*
X84357Y-56012D01*
X84579Y-56104D01*
X84819Y-56104D01*
X85041Y-56012D01*
X85212Y-55842D01*
X85215Y-55834D01*
X85274Y-55854D01*
X85629Y-55500D01*
X85274Y-55145D01*
X85215Y-55165D01*
X85212Y-55158D01*
X85146Y-55092D01*
X85146Y-54907D01*
X85212Y-54842D01*
X85215Y-54834D01*
X85274Y-54854D01*
X85629Y-54500D01*
X85274Y-54145D01*
X85215Y-54165D01*
X85212Y-54158D01*
X85146Y-54092D01*
X85146Y-52250D01*
X85112Y-52078D01*
X85015Y-51934D01*
X83011Y-49930D01*
X82867Y-49833D01*
X82696Y-49799D01*
X62750Y-49799D01*
X62654Y-49818D01*
X62654Y-48481D01*
X62643Y-48263D01*
X62581Y-48112D01*
X62485Y-48084D01*
X62415Y-48155D01*
X62415Y-48014D01*
X62387Y-47918D01*
X62181Y-47845D01*
X62129Y-47847D01*
X62129Y-46475D01*
X62118Y-46267D01*
X62060Y-46127D01*
X61967Y-46102D01*
X61897Y-46173D01*
X61897Y-46032D01*
X61872Y-45939D01*
X61675Y-45870D01*
X61467Y-45881D01*
X61327Y-45939D01*
X61302Y-46032D01*
X61600Y-46329D01*
X61897Y-46032D01*
X61897Y-46173D01*
X61670Y-46400D01*
X61967Y-46697D01*
X62060Y-46672D01*
X62129Y-46475D01*
X62129Y-47847D01*
X61963Y-47856D01*
X61897Y-47883D01*
X61897Y-46767D01*
X61600Y-46470D01*
X61302Y-46767D01*
X61327Y-46860D01*
X61524Y-46929D01*
X61732Y-46918D01*
X61872Y-46860D01*
X61897Y-46767D01*
X61897Y-47883D01*
X61812Y-47918D01*
X61784Y-48014D01*
X62100Y-48329D01*
X62415Y-48014D01*
X62415Y-48155D01*
X62170Y-48400D01*
X62485Y-48715D01*
X62581Y-48687D01*
X62654Y-48481D01*
X62654Y-49818D01*
X62624Y-49824D01*
X62415Y-49824D01*
X62415Y-48785D01*
X62100Y-48470D01*
X62029Y-48541D01*
X62029Y-48400D01*
X61714Y-48084D01*
X61618Y-48112D01*
X61545Y-48318D01*
X61556Y-48536D01*
X61618Y-48687D01*
X61714Y-48715D01*
X62029Y-48400D01*
X62029Y-48541D01*
X61784Y-48785D01*
X61812Y-48881D01*
X62018Y-48954D01*
X62236Y-48943D01*
X62387Y-48881D01*
X62415Y-48785D01*
X62415Y-49824D01*
X61161Y-49824D01*
X61141Y-49775D01*
X61071Y-49704D01*
X61021Y-49684D01*
X61021Y-46720D01*
X61044Y-46697D01*
X61097Y-46571D01*
X61139Y-46672D01*
X61232Y-46697D01*
X61529Y-46400D01*
X61232Y-46102D01*
X61139Y-46127D01*
X61100Y-46237D01*
X61046Y-46106D01*
X61046Y-43335D01*
X63860Y-40521D01*
X66105Y-40521D01*
X66028Y-40537D01*
X65884Y-40634D01*
X65584Y-40934D01*
X65487Y-41078D01*
X65453Y-41250D01*
X65453Y-41400D01*
X65453Y-41890D01*
X65342Y-42000D01*
X65243Y-42239D01*
X65243Y-42498D01*
X65342Y-42737D01*
X65525Y-42920D01*
X65763Y-43019D01*
X66022Y-43019D01*
X66261Y-42920D01*
X66393Y-42788D01*
X66446Y-42841D01*
X66446Y-44073D01*
X66480Y-44244D01*
X66577Y-44389D01*
X67664Y-45475D01*
X67808Y-45572D01*
X67808Y-45572D01*
X67819Y-45574D01*
X67796Y-45574D01*
X67603Y-45654D01*
X67455Y-45802D01*
X67375Y-45995D01*
X67374Y-46203D01*
X67453Y-46393D01*
X67453Y-47500D01*
X67487Y-47671D01*
X67584Y-47815D01*
X69184Y-49415D01*
X69184Y-49415D01*
X69328Y-49512D01*
X69499Y-49546D01*
X69500Y-49546D01*
X80875Y-49546D01*
X80890Y-49561D01*
X81091Y-49645D01*
X81307Y-49645D01*
X81508Y-49562D01*
X81661Y-49409D01*
X81745Y-49208D01*
X81745Y-48992D01*
X81662Y-48791D01*
X81509Y-48638D01*
X81308Y-48554D01*
X81092Y-48554D01*
X80891Y-48637D01*
X80875Y-48653D01*
X69685Y-48653D01*
X68346Y-47314D01*
X68346Y-46546D01*
X86907Y-46546D01*
X87095Y-46624D01*
X87303Y-46625D01*
X87493Y-46546D01*
X100214Y-46546D01*
X100521Y-46853D01*
X91431Y-46853D01*
X91411Y-46834D01*
X91209Y-46750D01*
X90991Y-46749D01*
X90788Y-46833D01*
X90769Y-46853D01*
X72231Y-46853D01*
X72211Y-46834D01*
X72009Y-46750D01*
X71791Y-46749D01*
X71588Y-46833D01*
X71434Y-46988D01*
X71350Y-47190D01*
X71349Y-47408D01*
X71433Y-47611D01*
X71588Y-47765D01*
X71790Y-47849D01*
X72008Y-47850D01*
X72211Y-47766D01*
X72230Y-47746D01*
X72675Y-47746D01*
X72634Y-47788D01*
X72550Y-47990D01*
X72549Y-48208D01*
X72633Y-48411D01*
X72788Y-48565D01*
X72990Y-48649D01*
X73208Y-48650D01*
X73411Y-48566D01*
X73430Y-48546D01*
X91868Y-48546D01*
X91888Y-48565D01*
X92090Y-48649D01*
X92308Y-48650D01*
X92511Y-48566D01*
X92530Y-48546D01*
X104600Y-48546D01*
X104771Y-48512D01*
X104771Y-48512D01*
X104915Y-48415D01*
X108815Y-44515D01*
X108815Y-44515D01*
X108912Y-44371D01*
X108914Y-44363D01*
X108965Y-44311D01*
X109049Y-44109D01*
X109050Y-43891D01*
X108966Y-43688D01*
X108935Y-43657D01*
X108935Y-42841D01*
X109038Y-42737D01*
X109138Y-42499D01*
X109138Y-42240D01*
X109039Y-42001D01*
X108856Y-41818D01*
X108618Y-41719D01*
X108359Y-41719D01*
X108120Y-41817D01*
X107992Y-41946D01*
X107864Y-41818D01*
X107625Y-41719D01*
X107367Y-41719D01*
X107128Y-41817D01*
X106995Y-41950D01*
X106864Y-41818D01*
X106625Y-41719D01*
X106367Y-41719D01*
X106128Y-41817D01*
X105995Y-41950D01*
X105864Y-41818D01*
X105625Y-41719D01*
X105367Y-41719D01*
X105128Y-41817D01*
X104995Y-41950D01*
X104864Y-41818D01*
X104625Y-41719D01*
X104582Y-41719D01*
X103496Y-40634D01*
X103351Y-40537D01*
X103274Y-40521D01*
X111364Y-40521D01*
X114578Y-43735D01*
X114578Y-53396D01*
X109033Y-47852D01*
X108966Y-47688D01*
X108811Y-47534D01*
X108609Y-47450D01*
X108391Y-47449D01*
X108188Y-47533D01*
X108034Y-47688D01*
X107950Y-47890D01*
X107950Y-47891D01*
X107866Y-47688D01*
X107711Y-47534D01*
X107509Y-47450D01*
X107291Y-47449D01*
X107088Y-47533D01*
X106934Y-47688D01*
X106850Y-47890D01*
X106849Y-48108D01*
X106933Y-48311D01*
X107088Y-48465D01*
X107290Y-48549D01*
X107317Y-48549D01*
X113003Y-54235D01*
X113003Y-56114D01*
X112514Y-56603D01*
X107452Y-56603D01*
X107420Y-56571D01*
X107369Y-56550D01*
X107419Y-56529D01*
X107452Y-56496D01*
X111725Y-56496D01*
X111740Y-56511D01*
X111941Y-56595D01*
X112157Y-56595D01*
X112358Y-56512D01*
X112511Y-56359D01*
X112595Y-56158D01*
X112595Y-55942D01*
X112512Y-55741D01*
X112359Y-55588D01*
X112158Y-55504D01*
X111942Y-55504D01*
X111741Y-55587D01*
X111725Y-55603D01*
X107452Y-55603D01*
X107420Y-55571D01*
X107369Y-55550D01*
X107419Y-55529D01*
X107452Y-55496D01*
X110724Y-55496D01*
X110841Y-55545D01*
X111057Y-55545D01*
X111258Y-55462D01*
X111411Y-55309D01*
X111495Y-55108D01*
X111495Y-54892D01*
X111412Y-54691D01*
X111259Y-54538D01*
X111058Y-54454D01*
X110842Y-54454D01*
X110641Y-54537D01*
X110575Y-54603D01*
X107452Y-54603D01*
X107420Y-54571D01*
X107369Y-54550D01*
X107419Y-54529D01*
X107452Y-54496D01*
X109475Y-54496D01*
X109490Y-54511D01*
X109691Y-54595D01*
X109907Y-54595D01*
X110108Y-54512D01*
X110261Y-54359D01*
X110345Y-54158D01*
X110345Y-53942D01*
X110262Y-53741D01*
X110109Y-53588D01*
X109908Y-53504D01*
X109692Y-53504D01*
X109491Y-53587D01*
X109475Y-53603D01*
X107452Y-53603D01*
X107420Y-53571D01*
X107369Y-53550D01*
X107419Y-53529D01*
X107578Y-53370D01*
X107664Y-53162D01*
X107665Y-52938D01*
X107579Y-52730D01*
X107420Y-52571D01*
X107369Y-52550D01*
X107419Y-52529D01*
X107578Y-52370D01*
X107664Y-52162D01*
X107665Y-51938D01*
X107579Y-51730D01*
X107546Y-51697D01*
X107546Y-49600D01*
X107512Y-49428D01*
X107512Y-49428D01*
X107415Y-49284D01*
X106915Y-48784D01*
X106771Y-48687D01*
X106600Y-48653D01*
X103931Y-48653D01*
X103911Y-48634D01*
X103709Y-48550D01*
X103491Y-48549D01*
X103288Y-48633D01*
X103134Y-48788D01*
X103100Y-48869D01*
X103066Y-48788D01*
X102911Y-48634D01*
X102709Y-48550D01*
X102491Y-48549D01*
X102288Y-48633D01*
X102134Y-48788D01*
X102050Y-48990D01*
X102049Y-49208D01*
X102091Y-49309D01*
X101565Y-48784D01*
X101421Y-48687D01*
X101250Y-48653D01*
X87524Y-48653D01*
X87509Y-48638D01*
X87308Y-48554D01*
X87092Y-48554D01*
X86891Y-48637D01*
X86738Y-48790D01*
X86654Y-48991D01*
X86654Y-49207D01*
X86737Y-49408D01*
X86890Y-49561D01*
X87091Y-49645D01*
X87307Y-49645D01*
X87508Y-49562D01*
X87524Y-49546D01*
X101064Y-49546D01*
X102634Y-51115D01*
X102778Y-51212D01*
X102778Y-51212D01*
X102950Y-51246D01*
X105014Y-51246D01*
X105253Y-51485D01*
X105253Y-58450D01*
X105287Y-58621D01*
X105384Y-58765D01*
X105984Y-59365D01*
X105984Y-59365D01*
X106128Y-59462D01*
X106300Y-59496D01*
X106747Y-59496D01*
X106779Y-59528D01*
X106830Y-59549D01*
X106780Y-59570D01*
X106621Y-59729D01*
X106535Y-59937D01*
X106535Y-59982D01*
X105414Y-61103D01*
X104669Y-61103D01*
X104669Y-60135D01*
X104665Y-60038D01*
X104665Y-58938D01*
X104579Y-58730D01*
X104420Y-58571D01*
X104369Y-58550D01*
X104419Y-58529D01*
X104578Y-58370D01*
X104664Y-58162D01*
X104665Y-57938D01*
X104579Y-57730D01*
X104420Y-57571D01*
X104369Y-57550D01*
X104419Y-57529D01*
X104578Y-57370D01*
X104664Y-57162D01*
X104665Y-56938D01*
X104579Y-56730D01*
X104420Y-56571D01*
X104369Y-56550D01*
X104419Y-56529D01*
X104578Y-56370D01*
X104664Y-56162D01*
X104665Y-55938D01*
X104579Y-55730D01*
X104420Y-55571D01*
X104369Y-55550D01*
X104419Y-55529D01*
X104578Y-55370D01*
X104664Y-55162D01*
X104665Y-54938D01*
X104579Y-54730D01*
X104420Y-54571D01*
X104369Y-54550D01*
X104419Y-54529D01*
X104578Y-54370D01*
X104664Y-54162D01*
X104665Y-53938D01*
X104579Y-53730D01*
X104420Y-53571D01*
X104369Y-53550D01*
X104419Y-53529D01*
X104578Y-53370D01*
X104664Y-53162D01*
X104665Y-52938D01*
X104579Y-52730D01*
X104464Y-52615D01*
X104464Y-52615D01*
X104556Y-52577D01*
X104626Y-52506D01*
X104664Y-52414D01*
X104665Y-52315D01*
X104665Y-51685D01*
X104627Y-51593D01*
X104556Y-51523D01*
X104464Y-51485D01*
X104365Y-51484D01*
X103735Y-51484D01*
X103643Y-51522D01*
X103573Y-51593D01*
X103536Y-51681D01*
X102452Y-51681D01*
X101560Y-50789D01*
X101440Y-50709D01*
X101300Y-50681D01*
X89300Y-50681D01*
X89159Y-50709D01*
X89039Y-50789D01*
X86439Y-53389D01*
X86359Y-53509D01*
X86331Y-53650D01*
X86331Y-54013D01*
X86187Y-54157D01*
X86184Y-54165D01*
X86125Y-54145D01*
X86054Y-54216D01*
X86054Y-54074D01*
X86020Y-53973D01*
X85794Y-53891D01*
X85554Y-53901D01*
X85379Y-53973D01*
X85345Y-54074D01*
X85700Y-54429D01*
X86054Y-54074D01*
X86054Y-54216D01*
X85770Y-54500D01*
X86125Y-54854D01*
X86184Y-54834D01*
X86187Y-54841D01*
X86345Y-55000D01*
X86187Y-55157D01*
X86184Y-55165D01*
X86125Y-55145D01*
X86054Y-55216D01*
X86054Y-55074D01*
X86029Y-55000D01*
X86054Y-54925D01*
X85700Y-54570D01*
X85345Y-54925D01*
X85370Y-55000D01*
X85345Y-55074D01*
X85700Y-55429D01*
X86054Y-55074D01*
X86054Y-55216D01*
X85770Y-55500D01*
X86125Y-55854D01*
X86184Y-55834D01*
X86187Y-55841D01*
X86357Y-56012D01*
X86579Y-56104D01*
X86819Y-56104D01*
X87041Y-56012D01*
X87200Y-55854D01*
X87357Y-56012D01*
X87579Y-56104D01*
X87819Y-56104D01*
X88041Y-56012D01*
X88200Y-55854D01*
X88253Y-55907D01*
X88253Y-55914D01*
X87964Y-56203D01*
X86054Y-56203D01*
X86054Y-55925D01*
X85700Y-55570D01*
X85345Y-55925D01*
X85379Y-56026D01*
X85605Y-56108D01*
X85845Y-56098D01*
X86020Y-56026D01*
X86054Y-55925D01*
X86054Y-56203D01*
X81515Y-56203D01*
X81949Y-56023D01*
X82322Y-55651D01*
X82524Y-55164D01*
X82525Y-54637D01*
X82323Y-54150D01*
X81951Y-53777D01*
X81464Y-53575D01*
X80937Y-53574D01*
X80450Y-53776D01*
X80077Y-54148D01*
X79875Y-54635D01*
X79874Y-55162D01*
X80076Y-55649D01*
X80448Y-56022D01*
X80883Y-56203D01*
X80435Y-56203D01*
X77437Y-53205D01*
X77292Y-53108D01*
X77121Y-53074D01*
X74072Y-53074D01*
X74018Y-53021D01*
X74176Y-52864D01*
X74268Y-52642D01*
X74268Y-52401D01*
X74176Y-52179D01*
X74018Y-52021D01*
X74176Y-51864D01*
X74268Y-51642D01*
X74268Y-51401D01*
X74176Y-51179D01*
X74006Y-51009D01*
X73784Y-50917D01*
X73544Y-50917D01*
X73322Y-51009D01*
X73164Y-51167D01*
X73006Y-51009D01*
X72784Y-50917D01*
X72544Y-50917D01*
X72322Y-51009D01*
X72152Y-51178D01*
X72059Y-51400D01*
X72059Y-51641D01*
X72151Y-51863D01*
X72309Y-52021D01*
X72152Y-52178D01*
X72059Y-52400D01*
X72059Y-52641D01*
X72151Y-52863D01*
X72309Y-53021D01*
X72278Y-53053D01*
X71281Y-53053D01*
X71261Y-53034D01*
X71059Y-52950D01*
X70841Y-52949D01*
X70638Y-53033D01*
X70484Y-53188D01*
X70400Y-53390D01*
X70399Y-53608D01*
X70483Y-53811D01*
X70638Y-53965D01*
X70840Y-54049D01*
X71058Y-54050D01*
X71261Y-53966D01*
X71280Y-53946D01*
X72234Y-53946D01*
X72309Y-54021D01*
X72278Y-54053D01*
X70381Y-54053D01*
X70361Y-54034D01*
X70159Y-53950D01*
X69941Y-53949D01*
X69738Y-54033D01*
X69584Y-54188D01*
X69500Y-54390D01*
X69499Y-54608D01*
X69583Y-54811D01*
X69725Y-54953D01*
X69431Y-54953D01*
X69411Y-54934D01*
X69209Y-54850D01*
X68991Y-54849D01*
X68788Y-54933D01*
X68634Y-55088D01*
X68550Y-55290D01*
X68549Y-55508D01*
X68633Y-55711D01*
X68788Y-55865D01*
X68990Y-55949D01*
X69208Y-55950D01*
X69411Y-55866D01*
X69430Y-55846D01*
X72144Y-55846D01*
X72151Y-55863D01*
X72309Y-56021D01*
X72256Y-56074D01*
X71328Y-56074D01*
X71157Y-56108D01*
X71012Y-56205D01*
X70634Y-56584D01*
X70537Y-56728D01*
X70503Y-56900D01*
X70503Y-56953D01*
X67179Y-56953D01*
X67179Y-52475D01*
X67168Y-52267D01*
X67110Y-52127D01*
X67017Y-52102D01*
X66947Y-52173D01*
X66947Y-52032D01*
X66922Y-51939D01*
X66725Y-51870D01*
X66517Y-51881D01*
X66377Y-51939D01*
X66352Y-52032D01*
X66650Y-52329D01*
X66947Y-52032D01*
X66947Y-52173D01*
X66720Y-52400D01*
X67017Y-52697D01*
X67110Y-52672D01*
X67179Y-52475D01*
X67179Y-56953D01*
X66942Y-56953D01*
X66814Y-56899D01*
X66947Y-56845D01*
X67094Y-56697D01*
X67174Y-56504D01*
X67175Y-56296D01*
X67095Y-56103D01*
X66947Y-55955D01*
X66814Y-55899D01*
X66947Y-55845D01*
X67094Y-55697D01*
X67174Y-55504D01*
X67175Y-55296D01*
X67095Y-55103D01*
X66947Y-54955D01*
X66814Y-54899D01*
X66947Y-54845D01*
X67094Y-54697D01*
X67174Y-54504D01*
X67175Y-54296D01*
X67095Y-54103D01*
X66947Y-53955D01*
X66814Y-53899D01*
X66947Y-53845D01*
X67094Y-53697D01*
X67174Y-53504D01*
X67175Y-53296D01*
X67095Y-53103D01*
X66947Y-52955D01*
X66821Y-52902D01*
X66922Y-52860D01*
X66947Y-52767D01*
X66650Y-52470D01*
X66579Y-52541D01*
X66579Y-52400D01*
X66282Y-52102D01*
X66189Y-52127D01*
X66120Y-52324D01*
X66131Y-52532D01*
X66189Y-52672D01*
X66282Y-52697D01*
X66579Y-52400D01*
X66579Y-52541D01*
X66352Y-52767D01*
X66377Y-52860D01*
X66487Y-52899D01*
X66353Y-52954D01*
X66205Y-53102D01*
X66125Y-53295D01*
X66124Y-53503D01*
X66204Y-53697D01*
X66352Y-53844D01*
X66485Y-53900D01*
X66353Y-53954D01*
X66205Y-54102D01*
X66125Y-54295D01*
X66124Y-54503D01*
X66204Y-54697D01*
X66352Y-54844D01*
X66485Y-54900D01*
X66353Y-54954D01*
X66205Y-55102D01*
X66125Y-55295D01*
X66124Y-55503D01*
X66204Y-55697D01*
X66352Y-55844D01*
X66485Y-55900D01*
X66353Y-55954D01*
X66205Y-56102D01*
X66125Y-56295D01*
X66124Y-56503D01*
X66204Y-56697D01*
X66352Y-56844D01*
X66485Y-56900D01*
X66353Y-56954D01*
X66205Y-57102D01*
X66125Y-57295D01*
X66124Y-57503D01*
X66204Y-57697D01*
X66352Y-57844D01*
X66485Y-57900D01*
X66353Y-57954D01*
X66205Y-58102D01*
X66125Y-58295D01*
X66124Y-58503D01*
X66204Y-58697D01*
X66352Y-58844D01*
X66424Y-58874D01*
X66325Y-58874D01*
X66233Y-58912D01*
X66163Y-58983D01*
X66125Y-59075D01*
X66124Y-59174D01*
X66124Y-59724D01*
X66162Y-59816D01*
X66233Y-59886D01*
X66325Y-59924D01*
X66424Y-59925D01*
X66974Y-59925D01*
X67066Y-59887D01*
X67106Y-59846D01*
X68768Y-59846D01*
X68788Y-59865D01*
X68990Y-59949D01*
X69208Y-59950D01*
X69411Y-59866D01*
X69430Y-59846D01*
X71785Y-59846D01*
X71956Y-59812D01*
X71956Y-59812D01*
X72101Y-59715D01*
X72691Y-59126D01*
X72783Y-59126D01*
X73006Y-59034D01*
X73075Y-58964D01*
X73097Y-59017D01*
X73168Y-59087D01*
X73259Y-59125D01*
X73359Y-59126D01*
X74068Y-59126D01*
X74159Y-59088D01*
X74230Y-59017D01*
X74250Y-58968D01*
X75836Y-58968D01*
X77084Y-60215D01*
X77084Y-60215D01*
X77228Y-60312D01*
X77400Y-60346D01*
X91050Y-60346D01*
X91221Y-60312D01*
X91221Y-60312D01*
X91365Y-60215D01*
X94015Y-57565D01*
X94015Y-57565D01*
X94112Y-57421D01*
X94146Y-57250D01*
X94146Y-57250D01*
X94146Y-55907D01*
X94212Y-55842D01*
X94231Y-55794D01*
X94231Y-57950D01*
X94259Y-58090D01*
X94339Y-58210D01*
X95439Y-59310D01*
X95439Y-59310D01*
X95559Y-59390D01*
X95700Y-59418D01*
X103669Y-59418D01*
X103779Y-59528D01*
X103824Y-59547D01*
X103803Y-59556D01*
X103773Y-59653D01*
X104100Y-59979D01*
X104426Y-59653D01*
X104396Y-59556D01*
X104373Y-59548D01*
X104419Y-59529D01*
X104578Y-59370D01*
X104664Y-59162D01*
X104665Y-58938D01*
X104665Y-60038D01*
X104658Y-59910D01*
X104593Y-59753D01*
X104496Y-59723D01*
X104170Y-60050D01*
X104496Y-60376D01*
X104593Y-60346D01*
X104669Y-60135D01*
X104669Y-61103D01*
X104426Y-61103D01*
X104426Y-60446D01*
X104100Y-60120D01*
X104029Y-60191D01*
X104029Y-60050D01*
X103703Y-59723D01*
X103606Y-59753D01*
X103530Y-59964D01*
X103541Y-60189D01*
X103606Y-60346D01*
X103703Y-60376D01*
X104029Y-60050D01*
X104029Y-60191D01*
X103773Y-60446D01*
X103803Y-60543D01*
X104014Y-60619D01*
X104239Y-60608D01*
X104396Y-60543D01*
X104426Y-60446D01*
X104426Y-61103D01*
X102332Y-61103D01*
X102312Y-61054D01*
X102242Y-60983D01*
X102150Y-60945D01*
X102050Y-60945D01*
X101342Y-60945D01*
X101250Y-60983D01*
X101179Y-61053D01*
X101141Y-61145D01*
X101141Y-61245D01*
X101141Y-61953D01*
X101179Y-62045D01*
X101236Y-62103D01*
X88135Y-62103D01*
X87915Y-61884D01*
X87771Y-61787D01*
X87600Y-61753D01*
X66125Y-61753D01*
X65953Y-61787D01*
X65809Y-61884D01*
X63443Y-64249D01*
X63075Y-64249D01*
X62983Y-64287D01*
X62913Y-64358D01*
X62875Y-64450D01*
X62875Y-64478D01*
X60280Y-64478D01*
X60262Y-64433D01*
X60191Y-64363D01*
X60099Y-64325D01*
X60000Y-64324D01*
X59300Y-64324D01*
X59208Y-64362D01*
X59138Y-64433D01*
X59100Y-64525D01*
X59099Y-64624D01*
X59099Y-65324D01*
X59137Y-65416D01*
X59208Y-65486D01*
X59265Y-65510D01*
X59191Y-65584D01*
X59100Y-65805D01*
X59099Y-66043D01*
X59191Y-66264D01*
X59351Y-66425D01*
X59323Y-66453D01*
X58224Y-66453D01*
X58209Y-66438D01*
X58008Y-66354D01*
X57792Y-66354D01*
X57591Y-66437D01*
X57438Y-66590D01*
X57354Y-66791D01*
X57354Y-67007D01*
X57437Y-67208D01*
X57590Y-67361D01*
X57791Y-67445D01*
X58007Y-67445D01*
X58208Y-67362D01*
X58224Y-67346D01*
X59273Y-67346D01*
X59359Y-67433D01*
X59580Y-67524D01*
X59818Y-67525D01*
X60039Y-67433D01*
X60208Y-67265D01*
X60253Y-67157D01*
X60253Y-67700D01*
X60287Y-67871D01*
X60384Y-68015D01*
X60934Y-68565D01*
X61078Y-68662D01*
X61250Y-68696D01*
X82157Y-68696D01*
X82345Y-68774D01*
X82553Y-68775D01*
X82747Y-68695D01*
X82894Y-68547D01*
X82974Y-68354D01*
X82975Y-68146D01*
X82895Y-67953D01*
X82747Y-67805D01*
X82554Y-67725D01*
X82346Y-67724D01*
X82156Y-67803D01*
X61435Y-67803D01*
X61146Y-67514D01*
X61146Y-67192D01*
X61290Y-67336D01*
X61491Y-67420D01*
X61707Y-67420D01*
X61908Y-67337D01*
X61924Y-67321D01*
X63098Y-67321D01*
X63134Y-67358D01*
X63355Y-67449D01*
X63593Y-67450D01*
X63814Y-67358D01*
X63983Y-67190D01*
X64074Y-66969D01*
X64075Y-66731D01*
X63983Y-66510D01*
X63823Y-66349D01*
X63876Y-66296D01*
X65243Y-66296D01*
X65243Y-66480D01*
X65281Y-66572D01*
X65351Y-66642D01*
X65443Y-66680D01*
X65543Y-66680D01*
X66343Y-66680D01*
X66435Y-66642D01*
X66453Y-66624D01*
X66453Y-66800D01*
X66487Y-66971D01*
X66584Y-67115D01*
X66984Y-67515D01*
X66984Y-67515D01*
X67128Y-67612D01*
X67299Y-67646D01*
X67300Y-67646D01*
X85750Y-67646D01*
X85921Y-67612D01*
X85921Y-67612D01*
X86065Y-67515D01*
X86244Y-67336D01*
X86344Y-67435D01*
X86344Y-67435D01*
X86488Y-67532D01*
X86659Y-67566D01*
X86660Y-67566D01*
X105160Y-67566D01*
X105331Y-67532D01*
X105331Y-67532D01*
X105475Y-67435D01*
X105812Y-67099D01*
X105812Y-67099D01*
X105908Y-66954D01*
X105942Y-66783D01*
X105942Y-66783D01*
X105942Y-66503D01*
X105996Y-66449D01*
X106127Y-66581D01*
X106366Y-66680D01*
X106624Y-66680D01*
X106863Y-66582D01*
X106996Y-66449D01*
X107127Y-66581D01*
X107366Y-66680D01*
X107624Y-66680D01*
X107863Y-66582D01*
X107996Y-66449D01*
X108127Y-66581D01*
X108366Y-66680D01*
X108624Y-66680D01*
X108863Y-66582D01*
X108968Y-66477D01*
X114523Y-66477D01*
X114516Y-66484D01*
X114425Y-66705D01*
X114424Y-66943D01*
X114516Y-67164D01*
X114684Y-67333D01*
X114905Y-67424D01*
X115143Y-67425D01*
X115364Y-67333D01*
X115426Y-67271D01*
X115750Y-67271D01*
X115921Y-67237D01*
X115921Y-67237D01*
X116065Y-67140D01*
X116940Y-66265D01*
X116940Y-66265D01*
X117037Y-66121D01*
X117071Y-65950D01*
X117071Y-65950D01*
X117071Y-42775D01*
X117037Y-42603D01*
X117037Y-42603D01*
X116940Y-42459D01*
X113876Y-39394D01*
X117424Y-39394D01*
X117363Y-39420D01*
X117071Y-39711D01*
X116912Y-40092D01*
X116912Y-40505D01*
X117070Y-40886D01*
X117361Y-41178D01*
X117742Y-41337D01*
X118155Y-41337D01*
X118536Y-41179D01*
X118828Y-40888D01*
X118966Y-40557D01*
X118966Y-68926D01*
X118966Y-68926D01*
G37*
G54D27*
X118966Y-68926D02*
X118314Y-68926D01*
X118486Y-68854D01*
X118778Y-68563D01*
X118937Y-68182D01*
X118937Y-67769D01*
X118779Y-67388D01*
X118488Y-67096D01*
X118107Y-66937D01*
X117694Y-66937D01*
X117313Y-67095D01*
X117021Y-67386D01*
X116862Y-67767D01*
X116862Y-68180D01*
X117020Y-68561D01*
X117311Y-68853D01*
X117471Y-68920D01*
X116556Y-68920D01*
X116505Y-68930D01*
X56861Y-68930D01*
X57128Y-68663D01*
X57287Y-68282D01*
X57287Y-67869D01*
X57129Y-67488D01*
X56838Y-67196D01*
X56457Y-67037D01*
X56044Y-67037D01*
X55663Y-67195D01*
X55371Y-67486D01*
X55344Y-67550D01*
X55344Y-40644D01*
X55445Y-40886D01*
X55736Y-41178D01*
X56117Y-41337D01*
X56530Y-41337D01*
X56911Y-41179D01*
X57203Y-40888D01*
X57362Y-40507D01*
X57362Y-40094D01*
X57204Y-39713D01*
X56913Y-39421D01*
X56849Y-39394D01*
X61623Y-39394D01*
X57484Y-43534D01*
X57387Y-43678D01*
X57353Y-43850D01*
X57353Y-46525D01*
X57338Y-46540D01*
X57254Y-46741D01*
X57254Y-46957D01*
X57337Y-47158D01*
X57490Y-47311D01*
X57691Y-47395D01*
X57907Y-47395D01*
X58108Y-47312D01*
X58261Y-47159D01*
X58345Y-46958D01*
X58345Y-46742D01*
X58262Y-46541D01*
X58246Y-46525D01*
X58246Y-44035D01*
X62410Y-39871D01*
X63246Y-39871D01*
X60284Y-42834D01*
X60187Y-42978D01*
X60153Y-43150D01*
X60153Y-46107D01*
X60075Y-46295D01*
X60074Y-46503D01*
X60128Y-46632D01*
X60128Y-49684D01*
X60079Y-49704D01*
X60008Y-49774D01*
X59986Y-49828D01*
X59917Y-49758D01*
X59695Y-49666D01*
X59455Y-49666D01*
X59233Y-49758D01*
X59062Y-49928D01*
X58970Y-50150D01*
X58970Y-50390D01*
X59062Y-50612D01*
X59128Y-50678D01*
X59128Y-52150D01*
X59162Y-52321D01*
X59259Y-52465D01*
X60359Y-53565D01*
X60359Y-53565D01*
X60503Y-53662D01*
X60675Y-53696D01*
X62800Y-53696D01*
X62971Y-53662D01*
X62971Y-53662D01*
X63115Y-53565D01*
X63140Y-53541D01*
X63204Y-53697D01*
X63352Y-53844D01*
X63485Y-53900D01*
X63353Y-53954D01*
X63205Y-54102D01*
X63125Y-54295D01*
X63124Y-54503D01*
X63204Y-54697D01*
X63352Y-54844D01*
X63485Y-54900D01*
X63353Y-54954D01*
X63205Y-55102D01*
X63125Y-55295D01*
X63124Y-55503D01*
X63204Y-55697D01*
X63352Y-55844D01*
X63485Y-55900D01*
X63353Y-55954D01*
X63205Y-56102D01*
X63125Y-56295D01*
X63124Y-56503D01*
X63204Y-56697D01*
X63352Y-56844D01*
X63485Y-56900D01*
X63356Y-56953D01*
X59250Y-56953D01*
X59078Y-56987D01*
X58934Y-57084D01*
X56784Y-59234D01*
X56687Y-59378D01*
X56653Y-59550D01*
X56653Y-61575D01*
X56687Y-61746D01*
X56784Y-61890D01*
X57459Y-62565D01*
X57603Y-62662D01*
X57603Y-62662D01*
X57775Y-62696D01*
X60225Y-62696D01*
X60396Y-62662D01*
X60396Y-62662D01*
X60540Y-62565D01*
X61686Y-61420D01*
X61707Y-61420D01*
X61908Y-61337D01*
X62061Y-61184D01*
X62145Y-60983D01*
X62145Y-60767D01*
X62062Y-60566D01*
X61909Y-60413D01*
X61708Y-60329D01*
X61492Y-60329D01*
X61291Y-60412D01*
X61138Y-60565D01*
X61054Y-60766D01*
X61054Y-60788D01*
X60039Y-61803D01*
X57960Y-61803D01*
X57546Y-61389D01*
X57546Y-61318D01*
X57590Y-61361D01*
X57791Y-61445D01*
X58007Y-61445D01*
X58208Y-61362D01*
X58224Y-61346D01*
X59550Y-61346D01*
X59721Y-61312D01*
X59721Y-61312D01*
X59865Y-61215D01*
X62235Y-58846D01*
X63357Y-58846D01*
X63485Y-58900D01*
X63353Y-58954D01*
X63205Y-59102D01*
X63125Y-59295D01*
X63124Y-59503D01*
X63203Y-59693D01*
X63203Y-60964D01*
X61214Y-62953D01*
X57685Y-62953D01*
X56596Y-61864D01*
X56596Y-54685D01*
X57886Y-53395D01*
X57907Y-53395D01*
X58108Y-53312D01*
X58261Y-53159D01*
X58345Y-52958D01*
X58345Y-52742D01*
X58262Y-52541D01*
X58109Y-52388D01*
X57908Y-52304D01*
X57692Y-52304D01*
X57491Y-52387D01*
X57338Y-52540D01*
X57254Y-52741D01*
X57254Y-52763D01*
X55834Y-54184D01*
X55737Y-54328D01*
X55703Y-54500D01*
X55703Y-62050D01*
X55737Y-62221D01*
X55834Y-62365D01*
X57184Y-63715D01*
X57328Y-63812D01*
X57500Y-63846D01*
X61400Y-63846D01*
X61571Y-63812D01*
X61571Y-63812D01*
X61715Y-63715D01*
X63965Y-61465D01*
X63965Y-61465D01*
X64062Y-61321D01*
X64096Y-61150D01*
X64096Y-61150D01*
X64096Y-59692D01*
X64174Y-59504D01*
X64175Y-59296D01*
X64095Y-59103D01*
X63947Y-58955D01*
X63814Y-58899D01*
X63947Y-58845D01*
X64094Y-58697D01*
X64174Y-58504D01*
X64175Y-58296D01*
X64095Y-58103D01*
X63947Y-57955D01*
X63814Y-57899D01*
X63947Y-57845D01*
X64094Y-57697D01*
X64174Y-57504D01*
X64175Y-57296D01*
X64095Y-57103D01*
X63947Y-56955D01*
X63814Y-56899D01*
X63947Y-56845D01*
X64094Y-56697D01*
X64174Y-56504D01*
X64175Y-56296D01*
X64095Y-56103D01*
X63947Y-55955D01*
X63814Y-55899D01*
X63947Y-55845D01*
X64094Y-55697D01*
X64174Y-55504D01*
X64175Y-55296D01*
X64095Y-55103D01*
X63947Y-54955D01*
X63814Y-54899D01*
X63947Y-54845D01*
X64094Y-54697D01*
X64174Y-54504D01*
X64175Y-54296D01*
X64095Y-54103D01*
X63947Y-53955D01*
X63814Y-53899D01*
X63947Y-53845D01*
X64094Y-53697D01*
X64174Y-53504D01*
X64175Y-53296D01*
X64095Y-53103D01*
X63947Y-52955D01*
X63814Y-52899D01*
X63947Y-52845D01*
X64094Y-52697D01*
X64174Y-52504D01*
X64175Y-52296D01*
X64095Y-52103D01*
X63947Y-51955D01*
X63754Y-51875D01*
X63546Y-51874D01*
X63353Y-51954D01*
X63205Y-52102D01*
X63126Y-52291D01*
X62654Y-52763D01*
X62654Y-52481D01*
X62643Y-52263D01*
X62581Y-52112D01*
X62485Y-52084D01*
X62415Y-52155D01*
X62415Y-52014D01*
X62387Y-51918D01*
X62181Y-51845D01*
X61963Y-51856D01*
X61812Y-51918D01*
X61784Y-52014D01*
X62100Y-52329D01*
X62415Y-52014D01*
X62415Y-52155D01*
X62170Y-52400D01*
X62485Y-52715D01*
X62581Y-52687D01*
X62654Y-52481D01*
X62654Y-52763D01*
X62614Y-52803D01*
X62410Y-52803D01*
X62415Y-52785D01*
X62100Y-52470D01*
X62029Y-52541D01*
X62029Y-52400D01*
X61714Y-52084D01*
X61618Y-52112D01*
X61545Y-52318D01*
X61556Y-52536D01*
X61618Y-52687D01*
X61714Y-52715D01*
X62029Y-52400D01*
X62029Y-52541D01*
X61784Y-52785D01*
X61789Y-52803D01*
X60860Y-52803D01*
X60021Y-51964D01*
X60021Y-50780D01*
X60078Y-50837D01*
X60170Y-50875D01*
X60270Y-50875D01*
X60978Y-50875D01*
X61070Y-50837D01*
X61141Y-50767D01*
X61161Y-50717D01*
X62725Y-50717D01*
X62850Y-50692D01*
X62850Y-50692D01*
X82510Y-50692D01*
X84253Y-52435D01*
X84253Y-54092D01*
X84187Y-54157D01*
X84095Y-54379D01*
X84095Y-54619D01*
X84187Y-54841D01*
X84253Y-54907D01*
X84253Y-55092D01*
X84187Y-55157D01*
X84095Y-55379D01*
X84095Y-55619D01*
X84187Y-55841D01*
X84357Y-56012D01*
X84579Y-56104D01*
X84819Y-56104D01*
X85041Y-56012D01*
X85212Y-55842D01*
X85215Y-55834D01*
X85274Y-55854D01*
X85629Y-55500D01*
X85274Y-55145D01*
X85215Y-55165D01*
X85212Y-55158D01*
X85146Y-55092D01*
X85146Y-54907D01*
X85212Y-54842D01*
X85215Y-54834D01*
X85274Y-54854D01*
X85629Y-54500D01*
X85274Y-54145D01*
X85215Y-54165D01*
X85212Y-54158D01*
X85146Y-54092D01*
X85146Y-52250D01*
X85112Y-52078D01*
X85015Y-51934D01*
X83011Y-49930D01*
X82867Y-49833D01*
X82696Y-49799D01*
X62750Y-49799D01*
X62654Y-49818D01*
X62654Y-48481D01*
X62643Y-48263D01*
X62581Y-48112D01*
X62485Y-48084D01*
X62415Y-48155D01*
X62415Y-48014D01*
X62387Y-47918D01*
X62181Y-47845D01*
X62129Y-47847D01*
X62129Y-46475D01*
X62118Y-46267D01*
X62060Y-46127D01*
X61967Y-46102D01*
X61897Y-46173D01*
X61897Y-46032D01*
X61872Y-45939D01*
X61675Y-45870D01*
X61467Y-45881D01*
X61327Y-45939D01*
X61302Y-46032D01*
X61600Y-46329D01*
X61897Y-46032D01*
X61897Y-46173D01*
X61670Y-46400D01*
X61967Y-46697D01*
X62060Y-46672D01*
X62129Y-46475D01*
X62129Y-47847D01*
X61963Y-47856D01*
X61897Y-47883D01*
X61897Y-46767D01*
X61600Y-46470D01*
X61302Y-46767D01*
X61327Y-46860D01*
X61524Y-46929D01*
X61732Y-46918D01*
X61872Y-46860D01*
X61897Y-46767D01*
X61897Y-47883D01*
X61812Y-47918D01*
X61784Y-48014D01*
X62100Y-48329D01*
X62415Y-48014D01*
X62415Y-48155D01*
X62170Y-48400D01*
X62485Y-48715D01*
X62581Y-48687D01*
X62654Y-48481D01*
X62654Y-49818D01*
X62624Y-49824D01*
X62415Y-49824D01*
X62415Y-48785D01*
X62100Y-48470D01*
X62029Y-48541D01*
X62029Y-48400D01*
X61714Y-48084D01*
X61618Y-48112D01*
X61545Y-48318D01*
X61556Y-48536D01*
X61618Y-48687D01*
X61714Y-48715D01*
X62029Y-48400D01*
X62029Y-48541D01*
X61784Y-48785D01*
X61812Y-48881D01*
X62018Y-48954D01*
X62236Y-48943D01*
X62387Y-48881D01*
X62415Y-48785D01*
X62415Y-49824D01*
X61161Y-49824D01*
X61141Y-49775D01*
X61071Y-49704D01*
X61021Y-49684D01*
X61021Y-46720D01*
X61044Y-46697D01*
X61097Y-46571D01*
X61139Y-46672D01*
X61232Y-46697D01*
X61529Y-46400D01*
X61232Y-46102D01*
X61139Y-46127D01*
X61100Y-46237D01*
X61046Y-46106D01*
X61046Y-43335D01*
X63860Y-40521D01*
X66105Y-40521D01*
X66028Y-40537D01*
X65884Y-40634D01*
X65584Y-40934D01*
X65487Y-41078D01*
X65453Y-41250D01*
X65453Y-41400D01*
X65453Y-41890D01*
X65342Y-42000D01*
X65243Y-42239D01*
X65243Y-42498D01*
X65342Y-42737D01*
X65525Y-42920D01*
X65763Y-43019D01*
X66022Y-43019D01*
X66261Y-42920D01*
X66393Y-42788D01*
X66446Y-42841D01*
X66446Y-44073D01*
X66480Y-44244D01*
X66577Y-44389D01*
X67664Y-45475D01*
X67808Y-45572D01*
X67808Y-45572D01*
X67819Y-45574D01*
X67796Y-45574D01*
X67603Y-45654D01*
X67455Y-45802D01*
X67375Y-45995D01*
X67374Y-46203D01*
X67453Y-46393D01*
X67453Y-47500D01*
X67487Y-47671D01*
X67584Y-47815D01*
X69184Y-49415D01*
X69184Y-49415D01*
X69328Y-49512D01*
X69499Y-49546D01*
X69500Y-49546D01*
X80875Y-49546D01*
X80890Y-49561D01*
X81091Y-49645D01*
X81307Y-49645D01*
X81508Y-49562D01*
X81661Y-49409D01*
X81745Y-49208D01*
X81745Y-48992D01*
X81662Y-48791D01*
X81509Y-48638D01*
X81308Y-48554D01*
X81092Y-48554D01*
X80891Y-48637D01*
X80875Y-48653D01*
X69685Y-48653D01*
X68346Y-47314D01*
X68346Y-46546D01*
X86907Y-46546D01*
X87095Y-46624D01*
X87303Y-46625D01*
X87493Y-46546D01*
X100214Y-46546D01*
X100521Y-46853D01*
X91431Y-46853D01*
X91411Y-46834D01*
X91209Y-46750D01*
X90991Y-46749D01*
X90788Y-46833D01*
X90769Y-46853D01*
X72231Y-46853D01*
X72211Y-46834D01*
X72009Y-46750D01*
X71791Y-46749D01*
X71588Y-46833D01*
X71434Y-46988D01*
X71350Y-47190D01*
X71349Y-47408D01*
X71433Y-47611D01*
X71588Y-47765D01*
X71790Y-47849D01*
X72008Y-47850D01*
X72211Y-47766D01*
X72230Y-47746D01*
X72675Y-47746D01*
X72634Y-47788D01*
X72550Y-47990D01*
X72549Y-48208D01*
X72633Y-48411D01*
X72788Y-48565D01*
X72990Y-48649D01*
X73208Y-48650D01*
X73411Y-48566D01*
X73430Y-48546D01*
X91868Y-48546D01*
X91888Y-48565D01*
X92090Y-48649D01*
X92308Y-48650D01*
X92511Y-48566D01*
X92530Y-48546D01*
X104600Y-48546D01*
X104771Y-48512D01*
X104771Y-48512D01*
X104915Y-48415D01*
X108815Y-44515D01*
X108815Y-44515D01*
X108912Y-44371D01*
X108914Y-44363D01*
X108965Y-44311D01*
X109049Y-44109D01*
X109050Y-43891D01*
X108966Y-43688D01*
X108935Y-43657D01*
X108935Y-42841D01*
X109038Y-42737D01*
X109138Y-42499D01*
X109138Y-42240D01*
X109039Y-42001D01*
X108856Y-41818D01*
X108618Y-41719D01*
X108359Y-41719D01*
X108120Y-41817D01*
X107992Y-41946D01*
X107864Y-41818D01*
X107625Y-41719D01*
X107367Y-41719D01*
X107128Y-41817D01*
X106995Y-41950D01*
X106864Y-41818D01*
X106625Y-41719D01*
X106367Y-41719D01*
X106128Y-41817D01*
X105995Y-41950D01*
X105864Y-41818D01*
X105625Y-41719D01*
X105367Y-41719D01*
X105128Y-41817D01*
X104995Y-41950D01*
X104864Y-41818D01*
X104625Y-41719D01*
X104582Y-41719D01*
X103496Y-40634D01*
X103351Y-40537D01*
X103274Y-40521D01*
X111364Y-40521D01*
X114578Y-43735D01*
X114578Y-53396D01*
X109033Y-47852D01*
X108966Y-47688D01*
X108811Y-47534D01*
X108609Y-47450D01*
X108391Y-47449D01*
X108188Y-47533D01*
X108034Y-47688D01*
X107950Y-47890D01*
X107950Y-47891D01*
X107866Y-47688D01*
X107711Y-47534D01*
X107509Y-47450D01*
X107291Y-47449D01*
X107088Y-47533D01*
X106934Y-47688D01*
X106850Y-47890D01*
X106849Y-48108D01*
X106933Y-48311D01*
X107088Y-48465D01*
X107290Y-48549D01*
X107317Y-48549D01*
X113003Y-54235D01*
X113003Y-56114D01*
X112514Y-56603D01*
X107452Y-56603D01*
X107420Y-56571D01*
X107369Y-56550D01*
X107419Y-56529D01*
X107452Y-56496D01*
X111725Y-56496D01*
X111740Y-56511D01*
X111941Y-56595D01*
X112157Y-56595D01*
X112358Y-56512D01*
X112511Y-56359D01*
X112595Y-56158D01*
X112595Y-55942D01*
X112512Y-55741D01*
X112359Y-55588D01*
X112158Y-55504D01*
X111942Y-55504D01*
X111741Y-55587D01*
X111725Y-55603D01*
X107452Y-55603D01*
X107420Y-55571D01*
X107369Y-55550D01*
X107419Y-55529D01*
X107452Y-55496D01*
X110724Y-55496D01*
X110841Y-55545D01*
X111057Y-55545D01*
X111258Y-55462D01*
X111411Y-55309D01*
X111495Y-55108D01*
X111495Y-54892D01*
X111412Y-54691D01*
X111259Y-54538D01*
X111058Y-54454D01*
X110842Y-54454D01*
X110641Y-54537D01*
X110575Y-54603D01*
X107452Y-54603D01*
X107420Y-54571D01*
X107369Y-54550D01*
X107419Y-54529D01*
X107452Y-54496D01*
X109475Y-54496D01*
X109490Y-54511D01*
X109691Y-54595D01*
X109907Y-54595D01*
X110108Y-54512D01*
X110261Y-54359D01*
X110345Y-54158D01*
X110345Y-53942D01*
X110262Y-53741D01*
X110109Y-53588D01*
X109908Y-53504D01*
X109692Y-53504D01*
X109491Y-53587D01*
X109475Y-53603D01*
X107452Y-53603D01*
X107420Y-53571D01*
X107369Y-53550D01*
X107419Y-53529D01*
X107578Y-53370D01*
X107664Y-53162D01*
X107665Y-52938D01*
X107579Y-52730D01*
X107420Y-52571D01*
X107369Y-52550D01*
X107419Y-52529D01*
X107578Y-52370D01*
X107664Y-52162D01*
X107665Y-51938D01*
X107579Y-51730D01*
X107546Y-51697D01*
X107546Y-49600D01*
X107512Y-49428D01*
X107512Y-49428D01*
X107415Y-49284D01*
X106915Y-48784D01*
X106771Y-48687D01*
X106600Y-48653D01*
X103931Y-48653D01*
X103911Y-48634D01*
X103709Y-48550D01*
X103491Y-48549D01*
X103288Y-48633D01*
X103134Y-48788D01*
X103100Y-48869D01*
X103066Y-48788D01*
X102911Y-48634D01*
X102709Y-48550D01*
X102491Y-48549D01*
X102288Y-48633D01*
X102134Y-48788D01*
X102050Y-48990D01*
X102049Y-49208D01*
X102091Y-49309D01*
X101565Y-48784D01*
X101421Y-48687D01*
X101250Y-48653D01*
X87524Y-48653D01*
X87509Y-48638D01*
X87308Y-48554D01*
X87092Y-48554D01*
X86891Y-48637D01*
X86738Y-48790D01*
X86654Y-48991D01*
X86654Y-49207D01*
X86737Y-49408D01*
X86890Y-49561D01*
X87091Y-49645D01*
X87307Y-49645D01*
X87508Y-49562D01*
X87524Y-49546D01*
X101064Y-49546D01*
X102634Y-51115D01*
X102778Y-51212D01*
X102778Y-51212D01*
X102950Y-51246D01*
X105014Y-51246D01*
X105253Y-51485D01*
X105253Y-58450D01*
X105287Y-58621D01*
X105384Y-58765D01*
X105984Y-59365D01*
X105984Y-59365D01*
X106128Y-59462D01*
X106300Y-59496D01*
X106747Y-59496D01*
X106779Y-59528D01*
X106830Y-59549D01*
X106780Y-59570D01*
X106621Y-59729D01*
X106535Y-59937D01*
X106535Y-59982D01*
X105414Y-61103D01*
X104669Y-61103D01*
X104669Y-60135D01*
X104665Y-60038D01*
X104665Y-58938D01*
X104579Y-58730D01*
X104420Y-58571D01*
X104369Y-58550D01*
X104419Y-58529D01*
X104578Y-58370D01*
X104664Y-58162D01*
X104665Y-57938D01*
X104579Y-57730D01*
X104420Y-57571D01*
X104369Y-57550D01*
X104419Y-57529D01*
X104578Y-57370D01*
X104664Y-57162D01*
X104665Y-56938D01*
X104579Y-56730D01*
X104420Y-56571D01*
X104369Y-56550D01*
X104419Y-56529D01*
X104578Y-56370D01*
X104664Y-56162D01*
X104665Y-55938D01*
X104579Y-55730D01*
X104420Y-55571D01*
X104369Y-55550D01*
X104419Y-55529D01*
X104578Y-55370D01*
X104664Y-55162D01*
X104665Y-54938D01*
X104579Y-54730D01*
X104420Y-54571D01*
X104369Y-54550D01*
X104419Y-54529D01*
X104578Y-54370D01*
X104664Y-54162D01*
X104665Y-53938D01*
X104579Y-53730D01*
X104420Y-53571D01*
X104369Y-53550D01*
X104419Y-53529D01*
X104578Y-53370D01*
X104664Y-53162D01*
X104665Y-52938D01*
X104579Y-52730D01*
X104464Y-52615D01*
X104464Y-52615D01*
X104556Y-52577D01*
X104626Y-52506D01*
X104664Y-52414D01*
X104665Y-52315D01*
X104665Y-51685D01*
X104627Y-51593D01*
X104556Y-51523D01*
X104464Y-51485D01*
X104365Y-51484D01*
X103735Y-51484D01*
X103643Y-51522D01*
X103573Y-51593D01*
X103536Y-51681D01*
X102452Y-51681D01*
X101560Y-50789D01*
X101440Y-50709D01*
X101300Y-50681D01*
X89300Y-50681D01*
X89159Y-50709D01*
X89039Y-50789D01*
X86439Y-53389D01*
X86359Y-53509D01*
X86331Y-53650D01*
X86331Y-54013D01*
X86187Y-54157D01*
X86184Y-54165D01*
X86125Y-54145D01*
X86054Y-54216D01*
X86054Y-54074D01*
X86020Y-53973D01*
X85794Y-53891D01*
X85554Y-53901D01*
X85379Y-53973D01*
X85345Y-54074D01*
X85700Y-54429D01*
X86054Y-54074D01*
X86054Y-54216D01*
X85770Y-54500D01*
X86125Y-54854D01*
X86184Y-54834D01*
X86187Y-54841D01*
X86345Y-55000D01*
X86187Y-55157D01*
X86184Y-55165D01*
X86125Y-55145D01*
X86054Y-55216D01*
X86054Y-55074D01*
X86029Y-55000D01*
X86054Y-54925D01*
X85700Y-54570D01*
X85345Y-54925D01*
X85370Y-55000D01*
X85345Y-55074D01*
X85700Y-55429D01*
X86054Y-55074D01*
X86054Y-55216D01*
X85770Y-55500D01*
X86125Y-55854D01*
X86184Y-55834D01*
X86187Y-55841D01*
X86357Y-56012D01*
X86579Y-56104D01*
X86819Y-56104D01*
X87041Y-56012D01*
X87200Y-55854D01*
X87357Y-56012D01*
X87579Y-56104D01*
X87819Y-56104D01*
X88041Y-56012D01*
X88200Y-55854D01*
X88253Y-55907D01*
X88253Y-55914D01*
X87964Y-56203D01*
X86054Y-56203D01*
X86054Y-55925D01*
X85700Y-55570D01*
X85345Y-55925D01*
X85379Y-56026D01*
X85605Y-56108D01*
X85845Y-56098D01*
X86020Y-56026D01*
X86054Y-55925D01*
X86054Y-56203D01*
X81515Y-56203D01*
X81949Y-56023D01*
X82322Y-55651D01*
X82524Y-55164D01*
X82525Y-54637D01*
X82323Y-54150D01*
X81951Y-53777D01*
X81464Y-53575D01*
X80937Y-53574D01*
X80450Y-53776D01*
X80077Y-54148D01*
X79875Y-54635D01*
X79874Y-55162D01*
X80076Y-55649D01*
X80448Y-56022D01*
X80883Y-56203D01*
X80435Y-56203D01*
X77437Y-53205D01*
X77292Y-53108D01*
X77121Y-53074D01*
X74072Y-53074D01*
X74018Y-53021D01*
X74176Y-52864D01*
X74268Y-52642D01*
X74268Y-52401D01*
X74176Y-52179D01*
X74018Y-52021D01*
X74176Y-51864D01*
X74268Y-51642D01*
X74268Y-51401D01*
X74176Y-51179D01*
X74006Y-51009D01*
X73784Y-50917D01*
X73544Y-50917D01*
X73322Y-51009D01*
X73164Y-51167D01*
X73006Y-51009D01*
X72784Y-50917D01*
X72544Y-50917D01*
X72322Y-51009D01*
X72152Y-51178D01*
X72059Y-51400D01*
X72059Y-51641D01*
X72151Y-51863D01*
X72309Y-52021D01*
X72152Y-52178D01*
X72059Y-52400D01*
X72059Y-52641D01*
X72151Y-52863D01*
X72309Y-53021D01*
X72278Y-53053D01*
X71281Y-53053D01*
X71261Y-53034D01*
X71059Y-52950D01*
X70841Y-52949D01*
X70638Y-53033D01*
X70484Y-53188D01*
X70400Y-53390D01*
X70399Y-53608D01*
X70483Y-53811D01*
X70638Y-53965D01*
X70840Y-54049D01*
X71058Y-54050D01*
X71261Y-53966D01*
X71280Y-53946D01*
X72234Y-53946D01*
X72309Y-54021D01*
X72278Y-54053D01*
X70381Y-54053D01*
X70361Y-54034D01*
X70159Y-53950D01*
X69941Y-53949D01*
X69738Y-54033D01*
X69584Y-54188D01*
X69500Y-54390D01*
X69499Y-54608D01*
X69583Y-54811D01*
X69725Y-54953D01*
X69431Y-54953D01*
X69411Y-54934D01*
X69209Y-54850D01*
X68991Y-54849D01*
X68788Y-54933D01*
X68634Y-55088D01*
X68550Y-55290D01*
X68549Y-55508D01*
X68633Y-55711D01*
X68788Y-55865D01*
X68990Y-55949D01*
X69208Y-55950D01*
X69411Y-55866D01*
X69430Y-55846D01*
X72144Y-55846D01*
X72151Y-55863D01*
X72309Y-56021D01*
X72256Y-56074D01*
X71328Y-56074D01*
X71157Y-56108D01*
X71012Y-56205D01*
X70634Y-56584D01*
X70537Y-56728D01*
X70503Y-56900D01*
X70503Y-56953D01*
X67179Y-56953D01*
X67179Y-52475D01*
X67168Y-52267D01*
X67110Y-52127D01*
X67017Y-52102D01*
X66947Y-52173D01*
X66947Y-52032D01*
X66922Y-51939D01*
X66725Y-51870D01*
X66517Y-51881D01*
X66377Y-51939D01*
X66352Y-52032D01*
X66650Y-52329D01*
X66947Y-52032D01*
X66947Y-52173D01*
X66720Y-52400D01*
X67017Y-52697D01*
X67110Y-52672D01*
X67179Y-52475D01*
X67179Y-56953D01*
X66942Y-56953D01*
X66814Y-56899D01*
X66947Y-56845D01*
X67094Y-56697D01*
X67174Y-56504D01*
X67175Y-56296D01*
X67095Y-56103D01*
X66947Y-55955D01*
X66814Y-55899D01*
X66947Y-55845D01*
X67094Y-55697D01*
X67174Y-55504D01*
X67175Y-55296D01*
X67095Y-55103D01*
X66947Y-54955D01*
X66814Y-54899D01*
X66947Y-54845D01*
X67094Y-54697D01*
X67174Y-54504D01*
X67175Y-54296D01*
X67095Y-54103D01*
X66947Y-53955D01*
X66814Y-53899D01*
X66947Y-53845D01*
X67094Y-53697D01*
X67174Y-53504D01*
X67175Y-53296D01*
X67095Y-53103D01*
X66947Y-52955D01*
X66821Y-52902D01*
X66922Y-52860D01*
X66947Y-52767D01*
X66650Y-52470D01*
X66579Y-52541D01*
X66579Y-52400D01*
X66282Y-52102D01*
X66189Y-52127D01*
X66120Y-52324D01*
X66131Y-52532D01*
X66189Y-52672D01*
X66282Y-52697D01*
X66579Y-52400D01*
X66579Y-52541D01*
X66352Y-52767D01*
X66377Y-52860D01*
X66487Y-52899D01*
X66353Y-52954D01*
X66205Y-53102D01*
X66125Y-53295D01*
X66124Y-53503D01*
X66204Y-53697D01*
X66352Y-53844D01*
X66485Y-53900D01*
X66353Y-53954D01*
X66205Y-54102D01*
X66125Y-54295D01*
X66124Y-54503D01*
X66204Y-54697D01*
X66352Y-54844D01*
X66485Y-54900D01*
X66353Y-54954D01*
X66205Y-55102D01*
X66125Y-55295D01*
X66124Y-55503D01*
X66204Y-55697D01*
X66352Y-55844D01*
X66485Y-55900D01*
X66353Y-55954D01*
X66205Y-56102D01*
X66125Y-56295D01*
X66124Y-56503D01*
X66204Y-56697D01*
X66352Y-56844D01*
X66485Y-56900D01*
X66353Y-56954D01*
X66205Y-57102D01*
X66125Y-57295D01*
X66124Y-57503D01*
X66204Y-57697D01*
X66352Y-57844D01*
X66485Y-57900D01*
X66353Y-57954D01*
X66205Y-58102D01*
X66125Y-58295D01*
X66124Y-58503D01*
X66204Y-58697D01*
X66352Y-58844D01*
X66424Y-58874D01*
X66325Y-58874D01*
X66233Y-58912D01*
X66163Y-58983D01*
X66125Y-59075D01*
X66124Y-59174D01*
X66124Y-59724D01*
X66162Y-59816D01*
X66233Y-59886D01*
X66325Y-59924D01*
X66424Y-59925D01*
X66974Y-59925D01*
X67066Y-59887D01*
X67106Y-59846D01*
X68768Y-59846D01*
X68788Y-59865D01*
X68990Y-59949D01*
X69208Y-59950D01*
X69411Y-59866D01*
X69430Y-59846D01*
X71785Y-59846D01*
X71956Y-59812D01*
X71956Y-59812D01*
X72101Y-59715D01*
X72691Y-59126D01*
X72783Y-59126D01*
X73006Y-59034D01*
X73075Y-58964D01*
X73097Y-59017D01*
X73168Y-59087D01*
X73259Y-59125D01*
X73359Y-59126D01*
X74068Y-59126D01*
X74159Y-59088D01*
X74230Y-59017D01*
X74250Y-58968D01*
X75836Y-58968D01*
X77084Y-60215D01*
X77084Y-60215D01*
X77228Y-60312D01*
X77400Y-60346D01*
X91050Y-60346D01*
X91221Y-60312D01*
X91221Y-60312D01*
X91365Y-60215D01*
X94015Y-57565D01*
X94015Y-57565D01*
X94112Y-57421D01*
X94146Y-57250D01*
X94146Y-57250D01*
X94146Y-55907D01*
X94212Y-55842D01*
X94231Y-55794D01*
X94231Y-57950D01*
X94259Y-58090D01*
X94339Y-58210D01*
X95439Y-59310D01*
X95439Y-59310D01*
X95559Y-59390D01*
X95700Y-59418D01*
X103669Y-59418D01*
X103779Y-59528D01*
X103824Y-59547D01*
X103803Y-59556D01*
X103773Y-59653D01*
X104100Y-59979D01*
X104426Y-59653D01*
X104396Y-59556D01*
X104373Y-59548D01*
X104419Y-59529D01*
X104578Y-59370D01*
X104664Y-59162D01*
X104665Y-58938D01*
X104665Y-60038D01*
X104658Y-59910D01*
X104593Y-59753D01*
X104496Y-59723D01*
X104170Y-60050D01*
X104496Y-60376D01*
X104593Y-60346D01*
X104669Y-60135D01*
X104669Y-61103D01*
X104426Y-61103D01*
X104426Y-60446D01*
X104100Y-60120D01*
X104029Y-60191D01*
X104029Y-60050D01*
X103703Y-59723D01*
X103606Y-59753D01*
X103530Y-59964D01*
X103541Y-60189D01*
X103606Y-60346D01*
X103703Y-60376D01*
X104029Y-60050D01*
X104029Y-60191D01*
X103773Y-60446D01*
X103803Y-60543D01*
X104014Y-60619D01*
X104239Y-60608D01*
X104396Y-60543D01*
X104426Y-60446D01*
X104426Y-61103D01*
X102332Y-61103D01*
X102312Y-61054D01*
X102242Y-60983D01*
X102150Y-60945D01*
X102050Y-60945D01*
X101342Y-60945D01*
X101250Y-60983D01*
X101179Y-61053D01*
X101141Y-61145D01*
X101141Y-61245D01*
X101141Y-61953D01*
X101179Y-62045D01*
X101236Y-62103D01*
X88135Y-62103D01*
X87915Y-61884D01*
X87771Y-61787D01*
X87600Y-61753D01*
X66125Y-61753D01*
X65953Y-61787D01*
X65809Y-61884D01*
X63443Y-64249D01*
X63075Y-64249D01*
X62983Y-64287D01*
X62913Y-64358D01*
X62875Y-64450D01*
X62875Y-64478D01*
X60280Y-64478D01*
X60262Y-64433D01*
X60191Y-64363D01*
X60099Y-64325D01*
X60000Y-64324D01*
X59300Y-64324D01*
X59208Y-64362D01*
X59138Y-64433D01*
X59100Y-64525D01*
X59099Y-64624D01*
X59099Y-65324D01*
X59137Y-65416D01*
X59208Y-65486D01*
X59265Y-65510D01*
X59191Y-65584D01*
X59100Y-65805D01*
X59099Y-66043D01*
X59191Y-66264D01*
X59351Y-66425D01*
X59323Y-66453D01*
X58224Y-66453D01*
X58209Y-66438D01*
X58008Y-66354D01*
X57792Y-66354D01*
X57591Y-66437D01*
X57438Y-66590D01*
X57354Y-66791D01*
X57354Y-67007D01*
X57437Y-67208D01*
X57590Y-67361D01*
X57791Y-67445D01*
X58007Y-67445D01*
X58208Y-67362D01*
X58224Y-67346D01*
X59273Y-67346D01*
X59359Y-67433D01*
X59580Y-67524D01*
X59818Y-67525D01*
X60039Y-67433D01*
X60208Y-67265D01*
X60253Y-67157D01*
X60253Y-67700D01*
X60287Y-67871D01*
X60384Y-68015D01*
X60934Y-68565D01*
X61078Y-68662D01*
X61250Y-68696D01*
X82157Y-68696D01*
X82345Y-68774D01*
X82553Y-68775D01*
X82747Y-68695D01*
X82894Y-68547D01*
X82974Y-68354D01*
X82975Y-68146D01*
X82895Y-67953D01*
X82747Y-67805D01*
X82554Y-67725D01*
X82346Y-67724D01*
X82156Y-67803D01*
X61435Y-67803D01*
X61146Y-67514D01*
X61146Y-67192D01*
X61290Y-67336D01*
X61491Y-67420D01*
X61707Y-67420D01*
X61908Y-67337D01*
X61924Y-67321D01*
X63098Y-67321D01*
X63134Y-67358D01*
X63355Y-67449D01*
X63593Y-67450D01*
X63814Y-67358D01*
X63983Y-67190D01*
X64074Y-66969D01*
X64075Y-66731D01*
X63983Y-66510D01*
X63823Y-66349D01*
X63876Y-66296D01*
X65243Y-66296D01*
X65243Y-66480D01*
X65281Y-66572D01*
X65351Y-66642D01*
X65443Y-66680D01*
X65543Y-66680D01*
X66343Y-66680D01*
X66435Y-66642D01*
X66453Y-66624D01*
X66453Y-66800D01*
X66487Y-66971D01*
X66584Y-67115D01*
X66984Y-67515D01*
X66984Y-67515D01*
X67128Y-67612D01*
X67299Y-67646D01*
X67300Y-67646D01*
X85750Y-67646D01*
X85921Y-67612D01*
X85921Y-67612D01*
X86065Y-67515D01*
X86244Y-67336D01*
X86344Y-67435D01*
X86344Y-67435D01*
X86488Y-67532D01*
X86659Y-67566D01*
X86660Y-67566D01*
X105160Y-67566D01*
X105331Y-67532D01*
X105331Y-67532D01*
X105475Y-67435D01*
X105812Y-67099D01*
X105812Y-67099D01*
X105908Y-66954D01*
X105942Y-66783D01*
X105942Y-66783D01*
X105942Y-66503D01*
X105996Y-66449D01*
X106127Y-66581D01*
X106366Y-66680D01*
X106624Y-66680D01*
X106863Y-66582D01*
X106996Y-66449D01*
X107127Y-66581D01*
X107366Y-66680D01*
X107624Y-66680D01*
X107863Y-66582D01*
X107996Y-66449D01*
X108127Y-66581D01*
X108366Y-66680D01*
X108624Y-66680D01*
X108863Y-66582D01*
X108968Y-66477D01*
X114523Y-66477D01*
X114516Y-66484D01*
X114425Y-66705D01*
X114424Y-66943D01*
X114516Y-67164D01*
X114684Y-67333D01*
X114905Y-67424D01*
X115143Y-67425D01*
X115364Y-67333D01*
X115426Y-67271D01*
X115750Y-67271D01*
X115921Y-67237D01*
X115921Y-67237D01*
X116065Y-67140D01*
X116940Y-66265D01*
X116940Y-66265D01*
X117037Y-66121D01*
X117071Y-65950D01*
X117071Y-65950D01*
X117071Y-42775D01*
X117037Y-42603D01*
X117037Y-42603D01*
X116940Y-42459D01*
X113876Y-39394D01*
X117424Y-39394D01*
X117363Y-39420D01*
X117071Y-39711D01*
X116912Y-40092D01*
X116912Y-40505D01*
X117070Y-40886D01*
X117361Y-41178D01*
X117742Y-41337D01*
X118155Y-41337D01*
X118536Y-41179D01*
X118828Y-40888D01*
X118966Y-40557D01*
X118966Y-68926D01*
M02*
